<svg xmlns:xlink="http://www.w3.org/1999/xlink" xmlns="http://www.w3.org/2000/svg" id="map" viewBox="0 0 222 222" width="200" height="200" data-dot="6"><defs><linearGradient id="dot-color" gradientUnits="userSpaceOnUse" x1="173" y1="12" x2="49" y2="210"><stop offset="0%" stop-color="#ffff00"/><stop offset="100%" stop-color="#ff0000"/></linearGradient></defs><g fill="url('#dot-color')"><rect x="24" y="180" width="18" height="18" rx="6" ry="6" transform="rotate(-90,33,189)"/><path clip-rule="evenodd" class="svgeye" d="M 12 183v 12a 15 15, 0, 0, 0, 15 15h 12a 15 15, 0, 0, 0, 15 -15v -12a 15 15, 0, 0, 0, -15 -15h -12a 15 15, 0, 0, 0, -15 15M 27 174h 12a 9 9, 0, 0, 1, 9 9v 12a 9 9, 0, 0, 1, -9 9h -12a 9 9, 0, 0, 1, -9 -9v -12a 9 9, 0, 0, 1, 9 -9" transform="rotate(-90,33,189)"/><rect x="180" y="24" width="18" height="18" rx="6" ry="6" transform="rotate(90,189,33)"/><path clip-rule="evenodd" class="svgeye" d="M 168 27v 12a 15 15, 0, 0, 0, 15 15h 12a 15 15, 0, 0, 0, 15 -15v -12a 15 15, 0, 0, 0, -15 -15h -12a 15 15, 0, 0, 0, -15 15M 183 18h 12a 9 9, 0, 0, 1, 9 9v 12a 9 9, 0, 0, 1, -9 9h -12a 9 9, 0, 0, 1, -9 -9v -12a 9 9, 0, 0, 1, 9 -9" transform="rotate(90,189,33)"/><rect x="24" y="24" width="18" height="18" rx="6" ry="6" transform="rotate(0,33,33)"/><path clip-rule="evenodd" class="svgeye" d="M 12 27v 12a 15 15, 0, 0, 0, 15 15h 12a 15 15, 0, 0, 0, 15 -15v -12a 15 15, 0, 0, 0, -15 -15h -12a 15 15, 0, 0, 0, -15 15M 27 18h 12a 9 9, 0, 0, 1, 9 9v 12a 9 9, 0, 0, 1, -9 9h -12a 9 9, 0, 0, 1, -9 -9v -12a 9 9, 0, 0, 1, 9 -9" transform="rotate(0,33,33)"/><path d="M 60 12v 6h 6a 6 6, 0, 0, 0, -6 -6" transform="rotate(-90,63,15)"/><path d="M 66 12v 6h 6a 6 6, 0, 0, 0, -6 -6" transform="rotate(90,69,15)"/><path d="M 78 12v 6h 6a 6 6, 0, 0, 0, -6 -6" transform="rotate(-90,81,15)"/><rect x="84" y="12" width="6" height="6" transform="rotate(0,87,15)"/><rect x="90" y="12" width="6" height="6" transform="rotate(0,93,15)"/><path d="M 96 12v 6h 6a 6 6, 0, 0, 0, -6 -6" transform="rotate(90,99,15)"/><path d="M 120 12v 6h 6a 6 6, 0, 0, 0, -6 -6" transform="rotate(-90,123,15)"/><rect x="126" y="12" width="6" height="6" transform="rotate(0,129,15)"/><path d="M 144 12v 6h 6a 6 6, 0, 0, 0, -6 -6" transform="rotate(-90,147,15)"/><rect x="150" y="12" width="6" height="6" transform="rotate(0,153,15)"/><rect x="60" y="18" width="6" height="6" transform="rotate(0,63,21)"/><path d="M 72 18v 6h 6a 6 6, 0, 0, 0, -6 -6" transform="rotate(-90,75,21)"/><path d="M 78 18v 6h 6a 6 6, 0, 0, 0, -6 -6" transform="rotate(90,81,21)"/><path d="M 90 18v 6h 6a 6 6, 0, 0, 0, -6 -6" transform="rotate(90,93,21)"/><path d="M 108 18v 6h 6a 6 6, 0, 0, 0, -6 -6" transform="rotate(-90,111,21)"/><path d="M 114 18v 6h 6a 6 6, 0, 0, 0, -6 -6" transform="rotate(90,117,21)"/><rect x="126" y="18" width="6" height="6" transform="rotate(0,129,21)"/><path d="M 138 18v 6h 6a 6 6, 0, 0, 0, -6 -6" transform="rotate(-90,141,21)"/><rect x="144" y="18" width="6" height="6" transform="rotate(0,147,21)"/><rect x="150" y="18" width="6" height="6" transform="rotate(0,153,21)"/><path d="M 156 18v 6h 6a 6 6, 0, 0, 0, -6 -6" transform="rotate(90,159,21)"/><rect x="60" y="24" width="6" height="6" transform="rotate(0,63,27)"/><path d="M 72 24v 6h 6a 6 6, 0, 0, 0, -6 -6" transform="rotate(90,75,27)"/><path d="M 102 24v 6h 6a 6 6, 0, 0, 0, -6 -6" transform="rotate(-90,105,27)"/><rect x="126" y="24" width="6" height="6" transform="rotate(0,129,27)"/><path d="M 132 24v 6h 6a 6 6, 0, 0, 0, -6 -6" transform="rotate(90,135,27)"/><rect x="144" y="24" width="6" height="6" transform="rotate(0,147,27)"/><rect x="60" y="30" width="6" height="6" transform="rotate(0,63,33)"/><path d="M 78 30v 3a 3 3, 0, 0, 0, 3 3h 3v -3a 3 3, 0, 0, 0, -3 -3" transform="rotate(90,81,33)"/><path d="M 96 30v 6h 6a 6 6, 0, 0, 0, -6 -6" transform="rotate(-90,99,33)"/><rect x="102" y="30" width="6" height="6" transform="rotate(0,105,33)"/><rect x="108" y="30" width="6" height="6" transform="rotate(0,111,33)"/><rect x="114" y="30" width="6" height="6" transform="rotate(0,117,33)"/><path d="M 126 30v 6h 6a 6 6, 0, 0, 0, -6 -6" transform="rotate(90,129,33)"/><rect x="144" y="30" width="6" height="6" transform="rotate(0,147,33)"/><rect x="150" y="30" width="6" height="6" transform="rotate(0,153,33)"/><path d="M 156 30v 6h 6a 6 6, 0, 0, 0, -6 -6" transform="rotate(90,159,33)"/><path d="M 60 36v 6h 6a 6 6, 0, 0, 0, -6 -6" transform="rotate(90,63,39)"/><rect x="96" y="36" width="6" height="6" transform="rotate(0,99,39)"/><rect x="102" y="36" width="6" height="6" transform="rotate(0,105,39)"/><path d="M 114 36v 6h 6a 6 6, 0, 0, 0, -6 -6" transform="rotate(90,117,39)"/><rect x="150" y="36" width="6" height="6" transform="rotate(0,153,39)"/><path d="M 72 42v 6h 6a 6 6, 0, 0, 0, -6 -6" transform="rotate(-90,75,45)"/><path d="M 78 42v 6h 6a 6 6, 0, 0, 0, -6 -6" transform="rotate(90,81,45)"/><path d="M 90 42v 3a 3 3, 0, 0, 0, 3 3h 3v -3a 3 3, 0, 0, 0, -3 -3" transform="rotate(90,93,45)"/><rect x="102" y="42" width="6" height="6" transform="rotate(0,105,45)"/><rect x="108" y="42" width="6" height="6" transform="rotate(0,111,45)"/><path d="M 120 42v 6h 6a 6 6, 0, 0, 0, -6 -6" transform="rotate(-90,123,45)"/><rect x="150" y="42" width="6" height="6" transform="rotate(0,153,45)"/><rect x="156" y="42" width="6" height="6" transform="rotate(0,159,45)"/><path d="M 60 48v 6h 6a 6 6, 0, 0, 0, -6 -6" transform="rotate(-90,63,51)"/><path d="M 72 48v 6h 6a 6 6, 0, 0, 0, -6 -6" transform="rotate(90,75,51)"/><path d="M 84 48v 3a 3 3, 0, 0, 0, 3 3h 3v -3a 3 3, 0, 0, 0, -3 -3" transform="rotate(90,87,51)"/><path d="M 96 48v 3a 3 3, 0, 0, 0, 3 3h 3v -3a 3 3, 0, 0, 0, -3 -3" transform="rotate(90,99,51)"/><path d="M 108 48v 6h 6a 6 6, 0, 0, 0, -6 -6" transform="rotate(90,111,51)"/><rect x="120" y="48" width="6" height="6" transform="rotate(0,123,51)"/><path d="M 132 48v 6h 6a 6 6, 0, 0, 0, -6 -6" transform="rotate(-90,135,51)"/><path d="M 144 48v 3a 3 3, 0, 0, 0, 3 3h 3v -3a 3 3, 0, 0, 0, -3 -3" transform="rotate(90,147,51)"/><path d="M 156 48v 6h 6a 6 6, 0, 0, 0, -6 -6" transform="rotate(90,159,51)"/><path d="M 60 54v 6h 6a 6 6, 0, 0, 0, -6 -6" transform="rotate(90,63,57)"/><path d="M 78 54v 6h 6a 6 6, 0, 0, 0, -6 -6" transform="rotate(-90,81,57)"/><path d="M 102 54v 3a 3 3, 0, 0, 0, 3 3h 3v -3a 3 3, 0, 0, 0, -3 -3" transform="rotate(90,105,57)"/><path d="M 114 54v 6h 6a 6 6, 0, 0, 0, -6 -6" transform="rotate(-90,117,57)"/><path d="M 120 54v 6h 6a 6 6, 0, 0, 0, -6 -6" transform="rotate(90,123,57)"/><rect x="132" y="54" width="6" height="6" transform="rotate(0,135,57)"/><rect x="138" y="54" width="6" height="6" transform="rotate(0,141,57)"/><path d="M 18 60v 6h 6a 6 6, 0, 0, 0, -6 -6" transform="rotate(-90,21,63)"/><path d="M 24 60v 6h 6a 6 6, 0, 0, 0, -6 -6" transform="rotate(90,27,63)"/><path d="M 36 60v 6h 6a 6 6, 0, 0, 0, -6 -6" transform="rotate(-90,39,63)"/><path d="M 48 60v 6h 6a 6 6, 0, 0, 0, -6 -6" transform="rotate(-90,51,63)"/><rect x="54" y="60" width="6" height="6" transform="rotate(0,57,63)"/><path d="M 72 60v 6h 6a 6 6, 0, 0, 0, -6 -6" transform="rotate(-90,75,63)"/><rect x="78" y="60" width="6" height="6" transform="rotate(0,81,63)"/><rect x="84" y="60" width="6" height="6" transform="rotate(0,87,63)"/><path d="M 96 60v 6h 6a 6 6, 0, 0, 0, -6 -6" transform="rotate(-90,99,63)"/><path d="M 114 60v 6h 6a 6 6, 0, 0, 0, -6 -6" transform="rotate(90,117,63)"/><path d="M 126 60v 3a 3 3, 0, 0, 0, 3 3h 3v -3a 3 3, 0, 0, 0, -3 -3" transform="rotate(90,129,63)"/><rect x="138" y="60" width="6" height="6" transform="rotate(0,141,63)"/><path d="M 144 60v 6h 6a 6 6, 0, 0, 0, -6 -6" transform="rotate(90,147,63)"/><path d="M 168 60v 6h 6a 6 6, 0, 0, 0, -6 -6" transform="rotate(-90,171,63)"/><path d="M 180 60v 6h 6a 6 6, 0, 0, 0, -6 -6" transform="rotate(-90,183,63)"/><rect x="186" y="60" width="6" height="6" transform="rotate(0,189,63)"/><rect x="192" y="60" width="6" height="6" transform="rotate(0,195,63)"/><rect x="198" y="60" width="6" height="6" transform="rotate(0,201,63)"/><rect x="204" y="60" width="6" height="6" transform="rotate(0,207,63)"/><path d="M 12 66v 6h 6a 6 6, 0, 0, 0, -6 -6" transform="rotate(-90,15,69)"/><path d="M 30 66v 6h 6a 6 6, 0, 0, 0, -6 -6" transform="rotate(-90,33,69)"/><rect x="36" y="66" width="6" height="6" transform="rotate(0,39,69)"/><rect x="42" y="66" width="6" height="6" transform="rotate(0,45,69)"/><rect x="54" y="66" width="6" height="6" transform="rotate(0,57,69)"/><rect x="60" y="66" width="6" height="6" transform="rotate(0,63,69)"/><path d="M 66 66v 6h 6a 6 6, 0, 0, 0, -6 -6" transform="rotate(90,69,69)"/><rect x="78" y="66" width="6" height="6" transform="rotate(0,81,69)"/><rect x="84" y="66" width="6" height="6" transform="rotate(0,87,69)"/><rect x="90" y="66" width="6" height="6" transform="rotate(0,93,69)"/><rect x="96" y="66" width="6" height="6" transform="rotate(0,99,69)"/><rect x="102" y="66" width="6" height="6" transform="rotate(0,105,69)"/><path d="M 108 66v 6h 6a 6 6, 0, 0, 0, -6 -6" transform="rotate(90,111,69)"/><path d="M 132 66v 6h 6a 6 6, 0, 0, 0, -6 -6" transform="rotate(-90,135,69)"/><path d="M 138 66v 6h 6a 6 6, 0, 0, 0, -6 -6" transform="rotate(90,141,69)"/><path d="M 156 66v 6h 6a 6 6, 0, 0, 0, -6 -6" transform="rotate(-90,159,69)"/><rect x="162" y="66" width="6" height="6" transform="rotate(0,165,69)"/><rect x="168" y="66" width="6" height="6" transform="rotate(0,171,69)"/><rect x="174" y="66" width="6" height="6" transform="rotate(0,177,69)"/><rect x="198" y="66" width="6" height="6" transform="rotate(0,201,69)"/><rect x="204" y="66" width="6" height="6" transform="rotate(0,207,69)"/><path d="M 12 72v 6h 6a 6 6, 0, 0, 0, -6 -6" transform="rotate(90,15,75)"/><path d="M 24 72v 6h 6a 6 6, 0, 0, 0, -6 -6" transform="rotate(-90,27,75)"/><path d="M 30 72v 6h 6a 6 6, 0, 0, 0, -6 -6" transform="rotate(90,33,75)"/><rect x="42" y="72" width="6" height="6" transform="rotate(0,45,75)"/><path d="M 48 72v 6h 6a 6 6, 0, 0, 0, -6 -6" transform="rotate(90,51,75)"/><rect x="60" y="72" width="6" height="6" transform="rotate(0,63,75)"/><path d="M 72 72v 6h 6a 6 6, 0, 0, 0, -6 -6" transform="rotate(-90,75,75)"/><rect x="78" y="72" width="6" height="6" transform="rotate(0,81,75)"/><path d="M 102 72v 6h 6a 6 6, 0, 0, 0, -6 -6" transform="rotate(90,105,75)"/><path d="M 114 72v 3a 3 3, 0, 0, 0, 3 3h 3v -3a 3 3, 0, 0, 0, -3 -3" transform="rotate(90,117,75)"/><rect x="132" y="72" width="6" height="6" transform="rotate(0,135,75)"/><path d="M 156 72v 6h 6a 6 6, 0, 0, 0, -6 -6" transform="rotate(90,159,75)"/><rect x="168" y="72" width="6" height="6" transform="rotate(0,171,75)"/><path d="M 174 72v 6h 6a 6 6, 0, 0, 0, -6 -6" transform="rotate(90,177,75)"/><path d="M 192 72v 6h 6a 6 6, 0, 0, 0, -6 -6" transform="rotate(-90,195,75)"/><rect x="198" y="72" width="6" height="6" transform="rotate(0,201,75)"/><path d="M 204 72v 6h 6a 6 6, 0, 0, 0, -6 -6" transform="rotate(90,207,75)"/><path d="M 24 78v 6h 6a 6 6, 0, 0, 0, -6 -6" transform="rotate(90,27,81)"/><path d="M 36 78v 3a 3 3, 0, 0, 0, 3 3h 3v -3a 3 3, 0, 0, 0, -3 -3" transform="rotate(90,39,81)"/><rect x="60" y="78" width="6" height="6" transform="rotate(0,63,81)"/><rect x="66" y="78" width="6" height="6" transform="rotate(0,69,81)"/><rect x="78" y="78" width="6" height="6" transform="rotate(0,81,81)"/><rect x="84" y="78" width="6" height="6" transform="rotate(0,87,81)"/><rect x="90" y="78" width="6" height="6" transform="rotate(0,93,81)"/><rect x="96" y="78" width="6" height="6" transform="rotate(0,99,81)"/><rect x="132" y="78" width="6" height="6" transform="rotate(0,135,81)"/><rect x="138" y="78" width="6" height="6" transform="rotate(0,141,81)"/><rect x="144" y="78" width="6" height="6" transform="rotate(0,147,81)"/><rect x="150" y="78" width="6" height="6" transform="rotate(0,153,81)"/><path d="M 162 78v 6h 6a 6 6, 0, 0, 0, -6 -6" transform="rotate(-90,165,81)"/><rect x="168" y="78" width="6" height="6" transform="rotate(0,171,81)"/><path d="M 180 78v 3a 3 3, 0, 0, 0, 3 3h 3v -3a 3 3, 0, 0, 0, -3 -3" transform="rotate(90,183,81)"/><path d="M 18 84v 6h 6a 6 6, 0, 0, 0, -6 -6" transform="rotate(-90,21,87)"/><path d="M 42 84v 6h 6a 6 6, 0, 0, 0, -6 -6" transform="rotate(-90,45,87)"/><path d="M 48 84v 6h 6a 6 6, 0, 0, 0, -6 -6" transform="rotate(90,51,87)"/><rect x="60" y="84" width="6" height="6" transform="rotate(0,63,87)"/><path d="M 66 84v 6h 6a 6 6, 0, 0, 0, -6 -6" transform="rotate(90,69,87)"/><path d="M 96 84v 6h 6a 6 6, 0, 0, 0, -6 -6" transform="rotate(90,99,87)"/><path d="M 108 84v 6h 6a 6 6, 0, 0, 0, -6 -6" transform="rotate(-90,111,87)"/><path d="M 138 84v 6h 6a 6 6, 0, 0, 0, -6 -6" transform="rotate(90,141,87)"/><rect x="150" y="84" width="6" height="6" transform="rotate(0,153,87)"/><rect x="156" y="84" width="6" height="6" transform="rotate(0,159,87)"/><rect x="168" y="84" width="6" height="6" transform="rotate(0,171,87)"/><rect x="174" y="84" width="6" height="6" transform="rotate(0,177,87)"/><path d="M 186 84v 3a 3 3, 0, 0, 0, 3 3h 3v -3a 3 3, 0, 0, 0, -3 -3" transform="rotate(90,189,87)"/><path d="M 198 84v 6h 6a 6 6, 0, 0, 0, -6 -6" transform="rotate(-90,201,87)"/><rect x="204" y="84" width="6" height="6" transform="rotate(0,207,87)"/><path d="M 12 90v 6h 6a 6 6, 0, 0, 0, -6 -6" transform="rotate(-90,15,93)"/><path d="M 18 90v 6h 6a 6 6, 0, 0, 0, -6 -6" transform="rotate(90,21,93)"/><path d="M 36 90v 6h 6a 6 6, 0, 0, 0, -6 -6" transform="rotate(-90,39,93)"/><rect x="42" y="90" width="6" height="6" transform="rotate(0,45,93)"/><rect x="60" y="90" width="6" height="6" transform="rotate(0,63,93)"/><path d="M 90 90v 3a 3 3, 0, 0, 0, 3 3h 3v -3a 3 3, 0, 0, 0, -3 -3" transform="rotate(90,93,93)"/><path d="M 102 90v 6h 6a 6 6, 0, 0, 0, -6 -6" transform="rotate(-90,105,93)"/><path d="M 108 90v 6h 6a 6 6, 0, 0, 0, -6 -6" transform="rotate(90,111,93)"/><path d="M 126 90v 3a 3 3, 0, 0, 0, 3 3h 3v -3a 3 3, 0, 0, 0, -3 -3" transform="rotate(90,129,93)"/><path d="M 144 90v 3a 3 3, 0, 0, 0, 3 3h 3v -3a 3 3, 0, 0, 0, -3 -3" transform="rotate(90,147,93)"/><path d="M 156 90v 6h 6a 6 6, 0, 0, 0, -6 -6" transform="rotate(90,159,93)"/><rect x="168" y="90" width="6" height="6" transform="rotate(0,171,93)"/><rect x="174" y="90" width="6" height="6" transform="rotate(0,177,93)"/><path d="M 192 90v 3a 3 3, 0, 0, 0, 3 3h 3v -3a 3 3, 0, 0, 0, -3 -3" transform="rotate(90,195,93)"/><rect x="204" y="90" width="6" height="6" transform="rotate(0,207,93)"/><rect x="12" y="96" width="6" height="6" transform="rotate(0,15,99)"/><path d="M 24 96v 3a 3 3, 0, 0, 0, 3 3h 3v -3a 3 3, 0, 0, 0, -3 -3" transform="rotate(90,27,99)"/><rect x="42" y="96" width="6" height="6" transform="rotate(0,45,99)"/><rect x="48" y="96" width="6" height="6" transform="rotate(0,51,99)"/><rect x="54" y="96" width="6" height="6" transform="rotate(0,57,99)"/><path d="M 60 96v 6h 6a 6 6, 0, 0, 0, -6 -6" transform="rotate(90,63,99)"/><path d="M 72 96v 6h 6a 6 6, 0, 0, 0, -6 -6" transform="rotate(-90,75,99)"/><rect x="78" y="96" width="6" height="6" transform="rotate(0,81,99)"/><path d="M 84 96v 6h 6a 6 6, 0, 0, 0, -6 -6" transform="rotate(90,87,99)"/><path d="M 96 96v 3a 3 3, 0, 0, 0, 3 3h 3v -3a 3 3, 0, 0, 0, -3 -3" transform="rotate(90,99,99)"/><path d="M 114 96v 3a 3 3, 0, 0, 0, 3 3h 3v -3a 3 3, 0, 0, 0, -3 -3" transform="rotate(90,117,99)"/><path d="M 138 96v 6h 6a 6 6, 0, 0, 0, -6 -6" transform="rotate(-90,141,99)"/><path d="M 162 96v 3a 3 3, 0, 0, 0, 3 3h 3v -3a 3 3, 0, 0, 0, -3 -3" transform="rotate(90,165,99)"/><rect x="174" y="96" width="6" height="6" transform="rotate(0,177,99)"/><rect x="180" y="96" width="6" height="6" transform="rotate(0,183,99)"/><path d="M 198 96v 6h 6a 6 6, 0, 0, 0, -6 -6" transform="rotate(-90,201,99)"/><path d="M 204 96v 6h 6a 6 6, 0, 0, 0, -6 -6" transform="rotate(90,207,99)"/><rect x="12" y="102" width="6" height="6" transform="rotate(0,15,105)"/><path d="M 18 102v 6h 6a 6 6, 0, 0, 0, -6 -6" transform="rotate(90,21,105)"/><path d="M 30 102v 6h 6a 6 6, 0, 0, 0, -6 -6" transform="rotate(-90,33,105)"/><path d="M 66 102v 6h 6a 6 6, 0, 0, 0, -6 -6" transform="rotate(-90,69,105)"/><rect x="72" y="102" width="6" height="6" transform="rotate(0,75,105)"/><path d="M 108 102v 6h 6a 6 6, 0, 0, 0, -6 -6" transform="rotate(-90,111,105)"/><path d="M 126 102v 3a 3 3, 0, 0, 0, 3 3h 3v -3a 3 3, 0, 0, 0, -3 -3" transform="rotate(90,129,105)"/><rect x="138" y="102" width="6" height="6" transform="rotate(0,141,105)"/><path d="M 150 102v 6h 6a 6 6, 0, 0, 0, -6 -6" transform="rotate(-90,153,105)"/><rect x="156" y="102" width="6" height="6" transform="rotate(0,159,105)"/><path d="M 168 102v 6h 6a 6 6, 0, 0, 0, -6 -6" transform="rotate(-90,171,105)"/><path d="M 180 102v 6h 6a 6 6, 0, 0, 0, -6 -6" transform="rotate(90,183,105)"/><path d="M 198 102v 6h 6a 6 6, 0, 0, 0, -6 -6" transform="rotate(90,201,105)"/><path d="M 30 108v 6h 6a 6 6, 0, 0, 0, -6 -6" transform="rotate(90,33,111)"/><path d="M 48 108v 6h 6a 6 6, 0, 0, 0, -6 -6" transform="rotate(-90,51,111)"/><rect x="54" y="108" width="6" height="6" transform="rotate(0,57,111)"/><rect x="60" y="108" width="6" height="6" transform="rotate(0,63,111)"/><rect x="66" y="108" width="6" height="6" transform="rotate(0,69,111)"/><rect x="72" y="108" width="6" height="6" transform="rotate(0,75,111)"/><path d="M 90 108v 6h 6a 6 6, 0, 0, 0, -6 -6" transform="rotate(-90,93,111)"/><path d="M 102 108v 6h 6a 6 6, 0, 0, 0, -6 -6" transform="rotate(-90,105,111)"/><rect x="108" y="108" width="6" height="6" transform="rotate(0,111,111)"/><rect x="114" y="108" width="6" height="6" transform="rotate(0,117,111)"/><path d="M 132 108v 6h 6a 6 6, 0, 0, 0, -6 -6" transform="rotate(-90,135,111)"/><rect x="138" y="108" width="6" height="6" transform="rotate(0,141,111)"/><rect x="156" y="108" width="6" height="6" transform="rotate(0,159,111)"/><rect x="162" y="108" width="6" height="6" transform="rotate(0,165,111)"/><rect x="168" y="108" width="6" height="6" transform="rotate(0,171,111)"/><path d="M 18 114v 6h 6a 6 6, 0, 0, 0, -6 -6" transform="rotate(-90,21,117)"/><rect x="24" y="114" width="6" height="6" transform="rotate(0,27,117)"/><path d="M 42 114v 3a 3 3, 0, 0, 0, 3 3h 3v -3a 3 3, 0, 0, 0, -3 -3" transform="rotate(90,45,117)"/><rect x="66" y="114" width="6" height="6" transform="rotate(0,69,117)"/><rect x="72" y="114" width="6" height="6" transform="rotate(0,75,117)"/><rect x="78" y="114" width="6" height="6" transform="rotate(0,81,117)"/><rect x="84" y="114" width="6" height="6" transform="rotate(0,87,117)"/><rect x="90" y="114" width="6" height="6" transform="rotate(0,93,117)"/><rect x="96" y="114" width="6" height="6" transform="rotate(0,99,117)"/><rect x="102" y="114" width="6" height="6" transform="rotate(0,105,117)"/><rect x="108" y="114" width="6" height="6" transform="rotate(0,111,117)"/><rect x="114" y="114" width="6" height="6" transform="rotate(0,117,117)"/><rect x="120" y="114" width="6" height="6" transform="rotate(0,123,117)"/><rect x="126" y="114" width="6" height="6" transform="rotate(0,129,117)"/><rect x="132" y="114" width="6" height="6" transform="rotate(0,135,117)"/><rect x="138" y="114" width="6" height="6" transform="rotate(0,141,117)"/><rect x="156" y="114" width="6" height="6" transform="rotate(0,159,117)"/><rect x="162" y="114" width="6" height="6" transform="rotate(0,165,117)"/><rect x="168" y="114" width="6" height="6" transform="rotate(0,171,117)"/><path d="M 174 114v 6h 6a 6 6, 0, 0, 0, -6 -6" transform="rotate(90,177,117)"/><path d="M 198 114v 6h 6a 6 6, 0, 0, 0, -6 -6" transform="rotate(-90,201,117)"/><rect x="204" y="114" width="6" height="6" transform="rotate(0,207,117)"/><rect x="18" y="120" width="6" height="6" transform="rotate(0,21,123)"/><rect x="24" y="120" width="6" height="6" transform="rotate(0,27,123)"/><rect x="30" y="120" width="6" height="6" transform="rotate(0,33,123)"/><path d="M 48 120v 3a 3 3, 0, 0, 0, 3 3h 3v -3a 3 3, 0, 0, 0, -3 -3" transform="rotate(90,51,123)"/><rect x="66" y="120" width="6" height="6" transform="rotate(0,69,123)"/><path d="M 72 120v 6h 6a 6 6, 0, 0, 0, -6 -6" transform="rotate(90,75,123)"/><rect x="84" y="120" width="6" height="6" transform="rotate(0,87,123)"/><rect x="96" y="120" width="6" height="6" transform="rotate(0,99,123)"/><rect x="102" y="120" width="6" height="6" transform="rotate(0,105,123)"/><rect x="108" y="120" width="6" height="6" transform="rotate(0,111,123)"/><path d="M 114 120v 6h 6a 6 6, 0, 0, 0, -6 -6" transform="rotate(90,117,123)"/><rect x="138" y="120" width="6" height="6" transform="rotate(0,141,123)"/><path d="M 144 120v 6h 6a 6 6, 0, 0, 0, -6 -6" transform="rotate(90,147,123)"/><rect x="156" y="120" width="6" height="6" transform="rotate(0,159,123)"/><rect x="162" y="120" width="6" height="6" transform="rotate(0,165,123)"/><rect x="168" y="120" width="6" height="6" transform="rotate(0,171,123)"/><path d="M 192 120v 6h 6a 6 6, 0, 0, 0, -6 -6" transform="rotate(-90,195,123)"/><rect x="198" y="120" width="6" height="6" transform="rotate(0,201,123)"/><path d="M 204 120v 6h 6a 6 6, 0, 0, 0, -6 -6" transform="rotate(90,207,123)"/><path d="M 12 126v 6h 6a 6 6, 0, 0, 0, -6 -6" transform="rotate(-90,15,129)"/><rect x="18" y="126" width="6" height="6" transform="rotate(0,21,129)"/><rect x="24" y="126" width="6" height="6" transform="rotate(0,27,129)"/><path d="M 30 126v 6h 6a 6 6, 0, 0, 0, -6 -6" transform="rotate(90,33,129)"/><path d="M 42 126v 6h 6a 6 6, 0, 0, 0, -6 -6" transform="rotate(-90,45,129)"/><rect x="84" y="126" width="6" height="6" transform="rotate(0,87,129)"/><rect x="108" y="126" width="6" height="6" transform="rotate(0,111,129)"/><path d="M 132 126v 6h 6a 6 6, 0, 0, 0, -6 -6" transform="rotate(-90,135,129)"/><rect x="138" y="126" width="6" height="6" transform="rotate(0,141,129)"/><path d="M 150 126v 6h 6a 6 6, 0, 0, 0, -6 -6" transform="rotate(-90,153,129)"/><rect x="156" y="126" width="6" height="6" transform="rotate(0,159,129)"/><rect x="162" y="126" width="6" height="6" transform="rotate(0,165,129)"/><rect x="168" y="126" width="6" height="6" transform="rotate(0,171,129)"/><rect x="174" y="126" width="6" height="6" transform="rotate(0,177,129)"/><path d="M 180 126v 6h 6a 6 6, 0, 0, 0, -6 -6" transform="rotate(90,183,129)"/><rect x="198" y="126" width="6" height="6" transform="rotate(0,201,129)"/><path d="M 18 132v 6h 6a 6 6, 0, 0, 0, -6 -6" transform="rotate(90,21,135)"/><path d="M 36 132v 6h 6a 6 6, 0, 0, 0, -6 -6" transform="rotate(-90,39,135)"/><rect x="42" y="132" width="6" height="6" transform="rotate(0,45,135)"/><rect x="48" y="132" width="6" height="6" transform="rotate(0,51,135)"/><path d="M 54 132v 6h 6a 6 6, 0, 0, 0, -6 -6" transform="rotate(90,57,135)"/><path d="M 66 132v 3a 3 3, 0, 0, 0, 3 3h 3v -3a 3 3, 0, 0, 0, -3 -3" transform="rotate(90,69,135)"/><path d="M 78 132v 6h 6a 6 6, 0, 0, 0, -6 -6" transform="rotate(-90,81,135)"/><rect x="84" y="132" width="6" height="6" transform="rotate(0,87,135)"/><path d="M 96 132v 6h 6a 6 6, 0, 0, 0, -6 -6" transform="rotate(-90,99,135)"/><path d="M 108 132v 6h 6a 6 6, 0, 0, 0, -6 -6" transform="rotate(90,111,135)"/><path d="M 120 132v 6h 6a 6 6, 0, 0, 0, -6 -6" transform="rotate(-90,123,135)"/><rect x="126" y="132" width="6" height="6" transform="rotate(0,129,135)"/><rect x="132" y="132" width="6" height="6" transform="rotate(0,135,135)"/><rect x="138" y="132" width="6" height="6" transform="rotate(0,141,135)"/><rect x="156" y="132" width="6" height="6" transform="rotate(0,159,135)"/><rect x="168" y="132" width="6" height="6" transform="rotate(0,171,135)"/><path d="M 186 132v 3a 3 3, 0, 0, 0, 3 3h 3v -3a 3 3, 0, 0, 0, -3 -3" transform="rotate(90,189,135)"/><rect x="198" y="132" width="6" height="6" transform="rotate(0,201,135)"/><rect x="204" y="132" width="6" height="6" transform="rotate(0,207,135)"/><path d="M 24 138v 3a 3 3, 0, 0, 0, 3 3h 3v -3a 3 3, 0, 0, 0, -3 -3" transform="rotate(90,27,141)"/><rect x="42" y="138" width="6" height="6" transform="rotate(0,45,141)"/><rect x="78" y="138" width="6" height="6" transform="rotate(0,81,141)"/><rect x="84" y="138" width="6" height="6" transform="rotate(0,87,141)"/><rect x="90" y="138" width="6" height="6" transform="rotate(0,93,141)"/><rect x="96" y="138" width="6" height="6" transform="rotate(0,99,141)"/><path d="M 102 138v 6h 6a 6 6, 0, 0, 0, -6 -6" transform="rotate(90,105,141)"/><rect x="126" y="138" width="6" height="6" transform="rotate(0,129,141)"/><rect x="132" y="138" width="6" height="6" transform="rotate(0,135,141)"/><rect x="138" y="138" width="6" height="6" transform="rotate(0,141,141)"/><rect x="156" y="138" width="6" height="6" transform="rotate(0,159,141)"/><rect x="162" y="138" width="6" height="6" transform="rotate(0,165,141)"/><rect x="168" y="138" width="6" height="6" transform="rotate(0,171,141)"/><rect x="174" y="138" width="6" height="6" transform="rotate(0,177,141)"/><rect x="198" y="138" width="6" height="6" transform="rotate(0,201,141)"/><rect x="204" y="138" width="6" height="6" transform="rotate(0,207,141)"/><path d="M 12 144v 3a 3 3, 0, 0, 0, 3 3h 3v -3a 3 3, 0, 0, 0, -3 -3" transform="rotate(90,15,147)"/><path d="M 36 144v 6h 6a 6 6, 0, 0, 0, -6 -6" transform="rotate(-90,39,147)"/><rect x="42" y="144" width="6" height="6" transform="rotate(0,45,147)"/><rect x="48" y="144" width="6" height="6" transform="rotate(0,51,147)"/><rect x="54" y="144" width="6" height="6" transform="rotate(0,57,147)"/><rect x="60" y="144" width="6" height="6" transform="rotate(0,63,147)"/><rect x="66" y="144" width="6" height="6" transform="rotate(0,69,147)"/><rect x="72" y="144" width="6" height="6" transform="rotate(0,75,147)"/><rect x="78" y="144" width="6" height="6" transform="rotate(0,81,147)"/><rect x="90" y="144" width="6" height="6" transform="rotate(0,93,147)"/><path d="M 96 144v 6h 6a 6 6, 0, 0, 0, -6 -6" transform="rotate(90,99,147)"/><path d="M 114 144v 3a 3 3, 0, 0, 0, 3 3h 3v -3a 3 3, 0, 0, 0, -3 -3" transform="rotate(90,117,147)"/><rect x="126" y="144" width="6" height="6" transform="rotate(0,129,147)"/><rect x="132" y="144" width="6" height="6" transform="rotate(0,135,147)"/><rect x="138" y="144" width="6" height="6" transform="rotate(0,141,147)"/><rect x="144" y="144" width="6" height="6" transform="rotate(0,147,147)"/><rect x="156" y="144" width="6" height="6" transform="rotate(0,159,147)"/><rect x="162" y="144" width="6" height="6" transform="rotate(0,165,147)"/><rect x="168" y="144" width="6" height="6" transform="rotate(0,171,147)"/><rect x="174" y="144" width="6" height="6" transform="rotate(0,177,147)"/><path d="M 180 144v 6h 6a 6 6, 0, 0, 0, -6 -6" transform="rotate(90,183,147)"/><path d="M 192 144v 6h 6a 6 6, 0, 0, 0, -6 -6" transform="rotate(-90,195,147)"/><rect x="198" y="144" width="6" height="6" transform="rotate(0,201,147)"/><path d="M 204 144v 6h 6a 6 6, 0, 0, 0, -6 -6" transform="rotate(90,207,147)"/><path d="M 18 150v 3a 3 3, 0, 0, 0, 3 3h 3v -3a 3 3, 0, 0, 0, -3 -3" transform="rotate(90,21,153)"/><path d="M 42 150v 6h 6a 6 6, 0, 0, 0, -6 -6" transform="rotate(90,45,153)"/><rect x="54" y="150" width="6" height="6" transform="rotate(0,57,153)"/><rect x="60" y="150" width="6" height="6" transform="rotate(0,63,153)"/><rect x="66" y="150" width="6" height="6" transform="rotate(0,69,153)"/><rect x="72" y="150" width="6" height="6" transform="rotate(0,75,153)"/><rect x="78" y="150" width="6" height="6" transform="rotate(0,81,153)"/><rect x="84" y="150" width="6" height="6" transform="rotate(0,87,153)"/><path d="M 90 150v 6h 6a 6 6, 0, 0, 0, -6 -6" transform="rotate(90,93,153)"/><path d="M 102 150v 6h 6a 6 6, 0, 0, 0, -6 -6" transform="rotate(-90,105,153)"/><path d="M 120 150v 3a 3 3, 0, 0, 0, 3 3h 3v -3a 3 3, 0, 0, 0, -3 -3" transform="rotate(90,123,153)"/><rect x="132" y="150" width="6" height="6" transform="rotate(0,135,153)"/><rect x="138" y="150" width="6" height="6" transform="rotate(0,141,153)"/><rect x="144" y="150" width="6" height="6" transform="rotate(0,147,153)"/><rect x="150" y="150" width="6" height="6" transform="rotate(0,153,153)"/><rect x="156" y="150" width="6" height="6" transform="rotate(0,159,153)"/><rect x="168" y="150" width="6" height="6" transform="rotate(0,171,153)"/><path d="M 186 150v 6h 6a 6 6, 0, 0, 0, -6 -6" transform="rotate(-90,189,153)"/><path d="M 12 156v 3a 3 3, 0, 0, 0, 3 3h 3v -3a 3 3, 0, 0, 0, -3 -3" transform="rotate(90,15,159)"/><path d="M 48 156v 6h 6a 6 6, 0, 0, 0, -6 -6" transform="rotate(-90,51,159)"/><rect x="54" y="156" width="6" height="6" transform="rotate(0,57,159)"/><rect x="60" y="156" width="6" height="6" transform="rotate(0,63,159)"/><path d="M 84 156v 6h 6a 6 6, 0, 0, 0, -6 -6" transform="rotate(90,87,159)"/><rect x="102" y="156" width="6" height="6" transform="rotate(0,105,159)"/><rect x="108" y="156" width="6" height="6" transform="rotate(0,111,159)"/><path d="M 114 156v 6h 6a 6 6, 0, 0, 0, -6 -6" transform="rotate(90,117,159)"/><path d="M 126 156v 6h 6a 6 6, 0, 0, 0, -6 -6" transform="rotate(-90,129,159)"/><rect x="132" y="156" width="6" height="6" transform="rotate(0,135,159)"/><rect x="138" y="156" width="6" height="6" transform="rotate(0,141,159)"/><rect x="150" y="156" width="6" height="6" transform="rotate(0,153,159)"/><rect x="156" y="156" width="6" height="6" transform="rotate(0,159,159)"/><rect x="162" y="156" width="6" height="6" transform="rotate(0,165,159)"/><rect x="168" y="156" width="6" height="6" transform="rotate(0,171,159)"/><rect x="174" y="156" width="6" height="6" transform="rotate(0,177,159)"/><rect x="180" y="156" width="6" height="6" transform="rotate(0,183,159)"/><rect x="186" y="156" width="6" height="6" transform="rotate(0,189,159)"/><rect x="60" y="162" width="6" height="6" transform="rotate(0,63,165)"/><rect x="102" y="162" width="6" height="6" transform="rotate(0,105,165)"/><path d="M 108 162v 6h 6a 6 6, 0, 0, 0, -6 -6" transform="rotate(90,111,165)"/><path d="M 138 162v 6h 6a 6 6, 0, 0, 0, -6 -6" transform="rotate(90,141,165)"/><rect x="156" y="162" width="6" height="6" transform="rotate(0,159,165)"/><rect x="180" y="162" width="6" height="6" transform="rotate(0,183,165)"/><path d="M 186 162v 6h 6a 6 6, 0, 0, 0, -6 -6" transform="rotate(90,189,165)"/><path d="M 204 162v 6h 6a 6 6, 0, 0, 0, -6 -6" transform="rotate(-90,207,165)"/><rect x="60" y="168" width="6" height="6" transform="rotate(0,63,171)"/><rect x="66" y="168" width="6" height="6" transform="rotate(0,69,171)"/><rect x="72" y="168" width="6" height="6" transform="rotate(0,75,171)"/><rect x="78" y="168" width="6" height="6" transform="rotate(0,81,171)"/><rect x="84" y="168" width="6" height="6" transform="rotate(0,87,171)"/><path d="M 90 168v 6h 6a 6 6, 0, 0, 0, -6 -6" transform="rotate(90,93,171)"/><path d="M 150 168v 6h 6a 6 6, 0, 0, 0, -6 -6" transform="rotate(-90,153,171)"/><rect x="156" y="168" width="6" height="6" transform="rotate(0,159,171)"/><path d="M 168 168v 3a 3 3, 0, 0, 0, 3 3h 3v -3a 3 3, 0, 0, 0, -3 -3" transform="rotate(90,171,171)"/><rect x="180" y="168" width="6" height="6" transform="rotate(0,183,171)"/><path d="M 192 168v 6h 6a 6 6, 0, 0, 0, -6 -6" transform="rotate(-90,195,171)"/><rect x="198" y="168" width="6" height="6" transform="rotate(0,201,171)"/><rect x="204" y="168" width="6" height="6" transform="rotate(0,207,171)"/><rect x="72" y="174" width="6" height="6" transform="rotate(0,75,177)"/><rect x="84" y="174" width="6" height="6" transform="rotate(0,87,177)"/><path d="M 96 174v 6h 6a 6 6, 0, 0, 0, -6 -6" transform="rotate(-90,99,177)"/><rect x="102" y="174" width="6" height="6" transform="rotate(0,105,177)"/><path d="M 126 174v 6h 6a 6 6, 0, 0, 0, -6 -6" transform="rotate(-90,129,177)"/><rect x="132" y="174" width="6" height="6" transform="rotate(0,135,177)"/><rect x="138" y="174" width="6" height="6" transform="rotate(0,141,177)"/><path d="M 144 174v 6h 6a 6 6, 0, 0, 0, -6 -6" transform="rotate(90,147,177)"/><rect x="156" y="174" width="6" height="6" transform="rotate(0,159,177)"/><rect x="180" y="174" width="6" height="6" transform="rotate(0,183,177)"/><rect x="198" y="174" width="6" height="6" transform="rotate(0,201,177)"/><path d="M 204 174v 6h 6a 6 6, 0, 0, 0, -6 -6" transform="rotate(90,207,177)"/><path d="M 60 180v 3a 3 3, 0, 0, 0, 3 3h 3v -3a 3 3, 0, 0, 0, -3 -3" transform="rotate(90,63,183)"/><rect x="72" y="180" width="6" height="6" transform="rotate(0,75,183)"/><path d="M 84 180v 6h 6a 6 6, 0, 0, 0, -6 -6" transform="rotate(90,87,183)"/><rect x="102" y="180" width="6" height="6" transform="rotate(0,105,183)"/><path d="M 114 180v 6h 6a 6 6, 0, 0, 0, -6 -6" transform="rotate(-90,117,183)"/><rect x="120" y="180" width="6" height="6" transform="rotate(0,123,183)"/><rect x="126" y="180" width="6" height="6" transform="rotate(0,129,183)"/><rect x="132" y="180" width="6" height="6" transform="rotate(0,135,183)"/><path d="M 138 180v 6h 6a 6 6, 0, 0, 0, -6 -6" transform="rotate(90,141,183)"/><rect x="156" y="180" width="6" height="6" transform="rotate(0,159,183)"/><rect x="162" y="180" width="6" height="6" transform="rotate(0,165,183)"/><rect x="168" y="180" width="6" height="6" transform="rotate(0,171,183)"/><rect x="174" y="180" width="6" height="6" transform="rotate(0,177,183)"/><rect x="180" y="180" width="6" height="6" transform="rotate(0,183,183)"/><rect x="186" y="180" width="6" height="6" transform="rotate(0,189,183)"/><rect x="198" y="180" width="6" height="6" transform="rotate(0,201,183)"/><path d="M 72 186v 6h 6a 6 6, 0, 0, 0, -6 -6" transform="rotate(90,75,189)"/><path d="M 96 186v 6h 6a 6 6, 0, 0, 0, -6 -6" transform="rotate(-90,99,189)"/><rect x="102" y="186" width="6" height="6" transform="rotate(0,105,189)"/><path d="M 126 186v 6h 6a 6 6, 0, 0, 0, -6 -6" transform="rotate(90,129,189)"/><path d="M 144 186v 3a 3 3, 0, 0, 0, 3 3h 3v -3a 3 3, 0, 0, 0, -3 -3" transform="rotate(90,147,189)"/><rect x="180" y="186" width="6" height="6" transform="rotate(0,183,189)"/><path d="M 186 186v 6h 6a 6 6, 0, 0, 0, -6 -6" transform="rotate(90,189,189)"/><rect x="198" y="186" width="6" height="6" transform="rotate(0,201,189)"/><rect x="204" y="186" width="6" height="6" transform="rotate(0,207,189)"/><path d="M 60 192v 6h 6a 6 6, 0, 0, 0, -6 -6" transform="rotate(-90,63,195)"/><path d="M 78 192v 6h 6a 6 6, 0, 0, 0, -6 -6" transform="rotate(-90,81,195)"/><rect x="84" y="192" width="6" height="6" transform="rotate(0,87,195)"/><path d="M 90 192v 6h 6a 6 6, 0, 0, 0, -6 -6" transform="rotate(90,93,195)"/><path d="M 102 192v 6h 6a 6 6, 0, 0, 0, -6 -6" transform="rotate(90,105,195)"/><path d="M 114 192v 3a 3 3, 0, 0, 0, 3 3h 3v -3a 3 3, 0, 0, 0, -3 -3" transform="rotate(90,117,195)"/><path d="M 138 192v 6h 6a 6 6, 0, 0, 0, -6 -6" transform="rotate(-90,141,195)"/><rect x="180" y="192" width="6" height="6" transform="rotate(0,183,195)"/><path d="M 204 192v 6h 6a 6 6, 0, 0, 0, -6 -6" transform="rotate(90,207,195)"/><path d="M 60 198v 6h 6a 6 6, 0, 0, 0, -6 -6" transform="rotate(90,63,201)"/><path d="M 72 198v 6h 6a 6 6, 0, 0, 0, -6 -6" transform="rotate(-90,75,201)"/><rect x="78" y="198" width="6" height="6" transform="rotate(0,81,201)"/><rect x="84" y="198" width="6" height="6" transform="rotate(0,87,201)"/><path d="M 108 198v 3a 3 3, 0, 0, 0, 3 3h 3v -3a 3 3, 0, 0, 0, -3 -3" transform="rotate(90,111,201)"/><rect x="138" y="198" width="6" height="6" transform="rotate(0,141,201)"/><rect x="144" y="198" width="6" height="6" transform="rotate(0,147,201)"/><rect x="150" y="198" width="6" height="6" transform="rotate(0,153,201)"/><rect x="156" y="198" width="6" height="6" transform="rotate(0,159,201)"/><path d="M 168 198v 3a 3 3, 0, 0, 0, 3 3h 3v -3a 3 3, 0, 0, 0, -3 -3" transform="rotate(90,171,201)"/><rect x="180" y="198" width="6" height="6" transform="rotate(0,183,201)"/><rect x="186" y="198" width="6" height="6" transform="rotate(0,189,201)"/><path d="M 198 198v 6h 6a 6 6, 0, 0, 0, -6 -6" transform="rotate(-90,201,201)"/><rect x="72" y="204" width="6" height="6" transform="rotate(0,75,207)"/><rect x="78" y="204" width="6" height="6" transform="rotate(0,81,207)"/><path d="M 84 204v 6h 6a 6 6, 0, 0, 0, -6 -6" transform="rotate(90,87,207)"/><path d="M 102 204v 3a 3 3, 0, 0, 0, 3 3h 3v -3a 3 3, 0, 0, 0, -3 -3" transform="rotate(90,105,207)"/><path d="M 120 204v 3a 3 3, 0, 0, 0, 3 3h 3v -3a 3 3, 0, 0, 0, -3 -3" transform="rotate(90,123,207)"/><path d="M 132 204v 6h 6a 6 6, 0, 0, 0, -6 -6" transform="rotate(-90,135,207)"/><path d="M 138 204v 6h 6a 6 6, 0, 0, 0, -6 -6" transform="rotate(90,141,207)"/><rect x="150" y="204" width="6" height="6" transform="rotate(0,153,207)"/><rect x="156" y="204" width="6" height="6" transform="rotate(0,159,207)"/><path d="M 162 204v 6h 6a 6 6, 0, 0, 0, -6 -6" transform="rotate(90,165,207)"/><rect x="180" y="204" width="6" height="6" transform="rotate(0,183,207)"/><path d="M 186 204v 6h 6a 6 6, 0, 0, 0, -6 -6" transform="rotate(90,189,207)"/><rect x="198" y="204" width="6" height="6" transform="rotate(0,201,207)"/><path d="M 204 204v 6h 6a 6 6, 0, 0, 0, -6 -6" transform="rotate(90,207,207)"/></g></svg>