<svg xmlns="http://www.w3.org/2000/svg" width="200" height="200" data-dot="6" viewBox="0 0 222 222"><defs><linearGradient id="a" x1="173" x2="49" y1="12" y2="210" gradientUnits="userSpaceOnUse"><stop offset="0%" stop-color="#ff0"/><stop offset="100%" stop-color="red"/></linearGradient></defs><g xmlns="http://www.w3.org/2000/svg" fill="url('#a')"><circle cx="33" cy="189" r="9" transform="rotate(-90 33 189)"/><path d="M27 210h12a15 15 0 0 0 15-15v-12a15 15 0 0 0-15-15H27a15 15 0 0 0-15 15v12a15 15 0 0 0 15 15m-9-15v-12a9 9 0 0 1 9-9h12a9 9 0 0 1 9 9v12a9 9 0 0 1-9 9H27a9 9 0 0 1-9-9" class="svgeye" clip-rule="evenodd"/><circle cx="189" cy="33" r="9" transform="rotate(90 189 33)"/><path d="M195 12h-12a15 15 0 0 0-15 15v12a15 15 0 0 0 15 15h12a15 15 0 0 0 15-15V27a15 15 0 0 0-15-15m9 15v12a9 9 0 0 1-9 9h-12a9 9 0 0 1-9-9V27a9 9 0 0 1 9-9h12a9 9 0 0 1 9 9" class="svgeye" clip-rule="evenodd"/><circle cx="33" cy="33" r="9"/><path d="M12 27v12a15 15 0 0 0 15 15h12a15 15 0 0 0 15-15V27a15 15 0 0 0-15-15H27a15 15 0 0 0-15 15m15-9h12a9 9 0 0 1 9 9v12a9 9 0 0 1-9 9H27a9 9 0 0 1-9-9V27a9 9 0 0 1 9-9" class="svgeye" clip-rule="evenodd"/><path d="M72 12h-3a3 3 0 0 0-3 3v3h3a3 3 0 0 0 3-3M78 18h6v-6a6 6 0 0 0-6 6M96 12h-3a3 3 0 0 0-3 3v3h3a3 3 0 0 0 3-3M108 12h-3a3 3 0 0 0-3 3v3h3a3 3 0 0 0 3-3M114 18h6v-6a6 6 0 0 0-6 6M120 12h6v6h-6zM138 18h6v-6a6 6 0 0 0-6 6M66 18h-3a3 3 0 0 0-3 3v3h3a3 3 0 0 0 3-3M72 24h6v-6a6 6 0 0 0-6 6M78 18h6v6h-6zM90 18h-6v6a6 6 0 0 0 6-6M114 18h-3a3 3 0 0 0-3 3v3h3a3 3 0 0 0 3-3M120 18h6v6h-6zM126 18h6v6h-6zM132 18h6v6h-6zM138 18h6v6h-6zM66 30h6v-6a6 6 0 0 0-6 6M90 30h6v-6a6 6 0 0 0-6 6M102 24h-6v6a6 6 0 0 0 6-6M126 24h6v6h-6zM132 24h6v6h-6zM144 24h-6v6a6 6 0 0 0 6-6M150 30h6v-6a6 6 0 0 0-6 6M162 24h-6v6a6 6 0 0 0 6-6M60 36h6v-6a6 6 0 0 0-6 6M66 30h6v6h-6zM96 30h-6v6a6 6 0 0 0 6-6M114 30h-3a3 3 0 0 0-3 3v3h3a3 3 0 0 0 3-3M126 30h-3a3 3 0 0 0-3 3v3h3a3 3 0 0 0 3-3M138 30h-6v6a6 6 0 0 0 6-6M60 36h6v6h-6zM66 36h6v6h-6zM72 36h6v6h-6zM78 36h6v6h-6zM84 36h6v6h-6zM108 36h-3a3 3 0 0 0-3 3v3h3a3 3 0 0 0 3-3M138 42h6v-6a6 6 0 0 0-6 6M144 36h6v6h-6zM150 36h6v6h-6zM72 42h6v6h-6zM84 42h6v6h-6zM90 42h6v6h-6zM96 42h6v6h-6zM114 48h6v-6a6 6 0 0 0-6 6M120 42h6v6h-6zM132 42h-6v6a6 6 0 0 0 6-6M138 42h6v6h-6zM144 42h6v6h-6zM156 42h-6v6a6 6 0 0 0 6-6M60 54h6v-6a6 6 0 0 0-6 6M78 48h-6v6a6 6 0 0 0 6-6M84 48h6v6h-6zM102 48h-6v6a6 6 0 0 0 6-6M114 48h-3a3 3 0 0 0-3 3v3h3a3 3 0 0 0 3-3M120 48h6v6h-6zM138 48h-3a3 3 0 0 0-3 3v3h3a3 3 0 0 0 3-3M150 48h-6v6a6 6 0 0 0 6-6M162 48h-3a3 3 0 0 0-3 3v3h3a3 3 0 0 0 3-3M60 54h6v6h-6zM78 60h6v-6a6 6 0 0 0-6 6M84 54h6v6h-6zM90 54h6v6h-6zM102 60h6v-6a6 6 0 0 0-6 6M126 54h-6v6a6 6 0 0 0 6-6M150 60h6v-6a6 6 0 0 0-6 6M18 66h6v-6a6 6 0 0 0-6 6M30 66h6v-6a6 6 0 0 0-6 6M36 60h6v6h-6zM42 60h6v6h-6zM54 60h-6v6a6 6 0 0 0 6-6M66 60h-6v6a6 6 0 0 0 6-6M78 60h6v6h-6zM84 60h6v6h-6zM90 60h6v6h-6zM96 60h6v6h-6zM102 60h6v6h-6zM108 60h6v6h-6zM114 60h6v6h-6zM138 60h-3a3 3 0 0 0-3 3v3h3a3 3 0 0 0 3-3M150 60h6v6h-6zM162 66h6v-6a6 6 0 0 0-6 6M174 60h-6v6a6 6 0 0 0 6-6M180 66h6v-6a6 6 0 0 0-6 6M186 60h6v6h-6zM204 60h-3a3 3 0 0 0-3 3v3h3a3 3 0 0 0 3-3M12 72h6v-6a6 6 0 0 0-6 6M18 66h6v6h-6zM24 66h6v6h-6zM30 66h6v6h-6zM66 72h6v-6a6 6 0 0 0-6 6M90 66h6v6h-6zM120 66h-6v6a6 6 0 0 0 6-6M132 66h-3a3 3 0 0 0-3 3v3h3a3 3 0 0 0 3-3M144 72h6v-6a6 6 0 0 0-6 6M150 66h6v6h-6zM180 66h6v6h-6zM186 66h6v6h-6zM192 66h6v6h-6zM12 72h6v6h-6zM24 72h6v6h-6zM30 72h6v6h-6zM54 72h-3a3 3 0 0 0-3 3v3h3a3 3 0 0 0 3-3M72 72h-6v6a6 6 0 0 0 6-6M78 78h6v-6a6 6 0 0 0-6 6M84 72h6v6h-6zM96 72h-6v6a6 6 0 0 0 6-6M144 72h-3a3 3 0 0 0-3 3v3h3a3 3 0 0 0 3-3M156 72h-6v6a6 6 0 0 0 6-6M162 78h6v-6a6 6 0 0 0-6 6M180 72h6v6h-6zM186 72h6v6h-6zM192 72h6v6h-6zM198 72h6v6h-6zM204 72h6v6h-6zM18 78h-6v6a6 6 0 0 0 6-6M30 78h6v6h-6zM42 78h-6v6a6 6 0 0 0 6-6M66 78h-3a3 3 0 0 0-3 3v3h3a3 3 0 0 0 3-3M78 78h6v6h-6zM90 78h-6v6a6 6 0 0 0 6-6M108 84h6v-6a6 6 0 0 0-6 6M126 78h-3a3 3 0 0 0-3 3v3h3a3 3 0 0 0 3-3M150 78h-3a3 3 0 0 0-3 3v3h3a3 3 0 0 0 3-3M156 84h6v-6a6 6 0 0 0-6 6M162 78h6v6h-6zM168 78h6v6h-6zM174 78h6v6h-6zM198 78h-6v6a6 6 0 0 0 6-6M210 78h-6v6a6 6 0 0 0 6-6M24 90h6v-6a6 6 0 0 0-6 6M42 90h6v-6a6 6 0 0 0-6 6M48 84h6v6h-6zM54 84h6v6h-6zM72 90h6v-6a6 6 0 0 0-6 6M84 84h-6v6a6 6 0 0 0 6-6M102 90h6v-6a6 6 0 0 0-6 6M108 84h6v6h-6zM120 84h-6v6a6 6 0 0 0 6-6M156 84h-3a3 3 0 0 0-3 3v3h3a3 3 0 0 0 3-3M168 84h6v6h-6zM180 84h-6v6a6 6 0 0 0 6-6M12 96h6v-6a6 6 0 0 0-6 6M24 90h6v6h-6zM30 90h6v6h-6zM36 90h6v6h-6zM42 90h6v6h-6zM54 90h6v6h-6zM72 90h6v6h-6zM84 96h6v-6a6 6 0 0 0-6 6M90 90h6v6h-6zM102 90h-6v6a6 6 0 0 0 6-6M108 90h6v6h-6zM120 96h6v-6a6 6 0 0 0-6 6M126 90h6v6h-6zM132 90h6v6h-6zM144 90h-6v6a6 6 0 0 0 6-6M198 90h-3a3 3 0 0 0-3 3v3h3a3 3 0 0 0 3-3M12 96h6v6h-6zM18 96h6v6h-6zM42 96h6v6h-6zM48 96h6v6h-6zM54 96h6v6h-6zM66 102h6v-6a6 6 0 0 0-6 6M72 96h6v6h-6zM78 96h6v6h-6zM108 96h6v6h-6zM114 96h6v6h-6zM120 96h6v6h-6zM126 96h6v6h-6zM132 96h6v6h-6zM174 96h-3a3 3 0 0 0-3 3v3h3a3 3 0 0 0 3-3M180 102h6v-6a6 6 0 0 0-6 6M186 96h6v6h-6zM12 102h6v6h-6zM18 102h6v6h-6zM42 102h-3a3 3 0 0 0-3 3v3h3a3 3 0 0 0 3-3M60 102h-6v6a6 6 0 0 0 6-6M66 102h6v6h-6zM84 102h-6v6a6 6 0 0 0 6-6M96 102h-3a3 3 0 0 0-3 3v3h3a3 3 0 0 0 3-3M108 102h-3a3 3 0 0 0-3 3v3h3a3 3 0 0 0 3-3M120 102h6v6h-6zM132 102h6v6h-6zM162 108h6v-6a6 6 0 0 0-6 6M180 102h6v6h-6zM186 102h6v6h-6zM198 102h-6v6a6 6 0 0 0 6-6M210 102h-3a3 3 0 0 0-3 3v3h3a3 3 0 0 0 3-3M18 108h6v6h-6zM24 108h6v6h-6zM42 114h6v-6a6 6 0 0 0-6 6M54 108h-6v6a6 6 0 0 0 6-6M66 108h6v6h-6zM90 108h-3a3 3 0 0 0-3 3v3h3a3 3 0 0 0 3-3M108 114h6v-6a6 6 0 0 0-6 6M114 108h6v6h-6zM126 108h-6v6a6 6 0 0 0 6-6M132 108h6v6h-6zM144 114h6v-6a6 6 0 0 0-6 6M156 108h-6v6a6 6 0 0 0 6-6M162 108h6v6h-6zM168 108h6v6h-6zM174 108h6v6h-6zM180 108h6v6h-6zM192 108h-6v6a6 6 0 0 0 6-6M12 120h6v-6a6 6 0 0 0-6 6M24 114h6v6h-6zM30 114h6v6h-6zM54 120h6v-6a6 6 0 0 0-6 6M60 114h6v6h-6zM66 114h6v6h-6zM90 120h6v-6a6 6 0 0 0-6 6M108 114h-3a3 3 0 0 0-3 3v3h3a3 3 0 0 0 3-3M126 120h6v-6a6 6 0 0 0-6 6M138 114h-6v6a6 6 0 0 0 6-6M144 114h6v6h-6zM168 114h6v6h-6zM186 114h-6v6a6 6 0 0 0 6-6M192 120h6v-6a6 6 0 0 0-6 6M204 120h6v-6a6 6 0 0 0-6 6M12 120h6v6h-6zM18 120h6v6h-6zM24 120h6v6h-6zM36 120h-6v6a6 6 0 0 0 6-6M42 126h6v-6a6 6 0 0 0-6 6M48 120h6v6h-6zM54 120h6v6h-6zM72 120h-6v6a6 6 0 0 0 6-6M78 126h6v-6a6 6 0 0 0-6 6M84 120h6v6h-6zM90 120h6v6h-6zM102 120h-6v6a6 6 0 0 0 6-6M108 126h6v-6a6 6 0 0 0-6 6M120 126h6v-6a6 6 0 0 0-6 6M132 120h-6v6a6 6 0 0 0 6-6M144 120h6v6h-6zM156 120h-6v6a6 6 0 0 0 6-6M162 126h6v-6a6 6 0 0 0-6 6M168 120h6v6h-6zM180 120h-6v6a6 6 0 0 0 6-6M186 126h6v-6a6 6 0 0 0-6 6M192 120h6v6h-6zM198 120h6v6h-6zM210 120h-6v6a6 6 0 0 0 6-6M12 126h6v6h-6zM18 126h6v6h-6zM24 126h6v6h-6zM54 126h6v6h-6zM66 126h-6v6a6 6 0 0 0 6-6M84 126h6v6h-6zM102 132h6v-6a6 6 0 0 0-6 6M108 126h6v6h-6zM126 126h-6v6a6 6 0 0 0 6-6M156 132h6v-6a6 6 0 0 0-6 6M168 126h-6v6a6 6 0 0 0 6-6M180 132h6v-6a6 6 0 0 0-6 6M186 126h6v6h-6zM192 126h6v6h-6zM198 126h6v6h-6zM18 132h6v6h-6zM30 132h-6v6a6 6 0 0 0 6-6M36 138h6v-6a6 6 0 0 0-6 6M42 132h6v6h-6zM48 132h6v6h-6zM60 132h-6v6a6 6 0 0 0 6-6M72 138h6v-6a6 6 0 0 0-6 6M78 132h6v6h-6zM84 132h6v6h-6zM102 132h-3a3 3 0 0 0-3 3v3h3a3 3 0 0 0 3-3M114 132h-6v6a6 6 0 0 0 6-6M132 132h-3a3 3 0 0 0-3 3v3h3a3 3 0 0 0 3-3M138 138h6v-6a6 6 0 0 0-6 6M144 132h6v6h-6zM162 132h-6v6a6 6 0 0 0 6-6M174 138h6v-6a6 6 0 0 0-6 6M186 132h6v6h-6zM204 132h-6v6a6 6 0 0 0 6-6M12 144h6v-6a6 6 0 0 0-6 6M24 138h-6v6a6 6 0 0 0 6-6M42 138h-6v6a6 6 0 0 0 6-6M60 144h6v-6a6 6 0 0 0-6 6M66 138h6v6h-6zM72 138h6v6h-6zM90 138h-6v6a6 6 0 0 0 6-6M108 138h-3a3 3 0 0 0-3 3v3h3a3 3 0 0 0 3-3M126 138h-3a3 3 0 0 0-3 3v3h3a3 3 0 0 0 3-3M138 138h6v6h-6zM144 138h6v6h-6zM150 138h6v6h-6zM174 138h6v6h-6zM180 138h6v6h-6zM192 138h-6v6a6 6 0 0 0 6-6M12 144h6v6h-6zM42 150h6v-6a6 6 0 0 0-6 6M48 144h6v6h-6zM54 144h6v6h-6zM60 144h6v6h-6zM66 144h6v6h-6zM72 144h6v6h-6zM84 144h-6v6a6 6 0 0 0 6-6M120 144h-3a3 3 0 0 0-3 3v3h3a3 3 0 0 0 3-3M126 150h6v-6a6 6 0 0 0-6 6M132 144h6v6h-6zM144 144h6v6h-6zM150 144h6v6h-6zM168 150h6v-6a6 6 0 0 0-6 6M186 144h-6v6a6 6 0 0 0 6-6M198 150h6v-6a6 6 0 0 0-6 6M204 144h6v6h-6zM12 150h6v6h-6zM30 150h-3a3 3 0 0 0-3 3v3h3a3 3 0 0 0 3-3M42 150h-3a3 3 0 0 0-3 3v3h3a3 3 0 0 0 3-3M66 150h6v6h-6zM72 150h6v6h-6zM84 156h6v-6a6 6 0 0 0-6 6M102 150h-3a3 3 0 0 0-3 3v3h3a3 3 0 0 0 3-3M108 156h6v-6a6 6 0 0 0-6 6M120 156h6v-6a6 6 0 0 0-6 6M126 150h6v6h-6zM132 150h6v6h-6zM150 150h6v6h-6zM156 150h6v6h-6zM162 150h6v6h-6zM168 150h6v6h-6zM174 150h6v6h-6zM192 156h6v-6a6 6 0 0 0-6 6M198 150h6v6h-6zM204 150h6v6h-6zM12 156h6v6h-6zM24 156h-6v6a6 6 0 0 0 6-6M48 162h6v-6a6 6 0 0 0-6 6M54 156h6v6h-6zM60 156h6v6h-6zM72 156h6v6h-6zM78 156h6v6h-6zM84 156h6v6h-6zM108 156h6v6h-6zM120 156h-6v6a6 6 0 0 0 6-6M138 156h-6v6a6 6 0 0 0 6-6M150 156h6v6h-6zM156 156h6v6h-6zM162 156h6v6h-6zM168 156h6v6h-6zM174 156h6v6h-6zM180 156h6v6h-6zM192 156h-6v6a6 6 0 0 0 6-6M210 156h-6v6a6 6 0 0 0 6-6M60 162h6v6h-6zM66 162h6v6h-6zM84 162h6v6h-6zM90 162h6v6h-6zM96 162h6v6h-6zM102 162h6v6h-6zM108 162h6v6h-6zM120 168h6v-6a6 6 0 0 0-6 6M144 162h-3a3 3 0 0 0-3 3v3h3a3 3 0 0 0 3-3M156 162h6v6h-6zM180 162h6v6h-6zM192 168h6v-6a6 6 0 0 0-6 6M204 162h-6v6a6 6 0 0 0 6-6M66 168h6v6h-6zM90 168h-6v6a6 6 0 0 0 6-6M114 168h-6v6a6 6 0 0 0 6-6M120 168h6v6h-6zM126 168h6v6h-6zM150 174h6v-6a6 6 0 0 0-6 6M156 168h6v6h-6zM174 168h-3a3 3 0 0 0-3 3v3h3a3 3 0 0 0 3-3M180 168h6v6h-6zM192 168h6v6h-6zM60 180h6v-6a6 6 0 0 0-6 6M66 174h6v6h-6zM78 180h6v-6a6 6 0 0 0-6 6M96 174h-3a3 3 0 0 0-3 3v3h3a3 3 0 0 0 3-3M120 174h6v6h-6zM126 174h6v6h-6zM138 180h6v-6a6 6 0 0 0-6 6M144 174h6v6h-6zM150 174h6v6h-6zM156 174h6v6h-6zM180 174h6v6h-6zM186 174h6v6h-6zM192 174h6v6h-6zM198 174h6v6h-6zM204 174h6v6h-6zM60 180h6v6h-6zM72 180h-6v6a6 6 0 0 0 6-6M78 180h6v6h-6zM96 186h6v-6a6 6 0 0 0-6 6M102 180h6v6h-6zM108 180h6v6h-6zM114 180h6v6h-6zM120 180h6v6h-6zM132 180h-6v6a6 6 0 0 0 6-6M138 180h6v6h-6zM144 180h6v6h-6zM150 180h6v6h-6zM156 180h6v6h-6zM162 180h6v6h-6zM168 180h6v6h-6zM174 180h6v6h-6zM186 180h-6v6a6 6 0 0 0 6-6M198 180h6v6h-6zM204 180h6v6h-6zM66 186h-6v6a6 6 0 0 0 6-6M72 192h6v-6a6 6 0 0 0-6 6M78 186h6v6h-6zM108 186h-6v6a6 6 0 0 0 6-6M114 186h6v6h-6zM126 186h-6v6a6 6 0 0 0 6-6M138 186h6v6h-6zM144 186h6v6h-6zM150 186h6v6h-6zM156 186h6v6h-6zM162 186h6v6h-6zM174 186h6v6h-6zM204 186h6v6h-6zM72 192h6v6h-6zM78 192h6v6h-6zM90 198h6v-6a6 6 0 0 0-6 6M96 192h6v6h-6zM108 198h6v-6a6 6 0 0 0-6 6M126 198h6v-6a6 6 0 0 0-6 6M144 192h-6v6a6 6 0 0 0 6-6M168 192h-6v6a6 6 0 0 0 6-6M174 192h6v6h-6zM180 192h6v6h-6zM192 198h6v-6a6 6 0 0 0-6 6M198 192h6v6h-6zM204 192h6v6h-6zM60 204h6v-6a6 6 0 0 0-6 6M66 198h6v6h-6zM72 198h6v6h-6zM78 198h6v6h-6zM102 198h-6v6a6 6 0 0 0 6-6M114 198h-6v6a6 6 0 0 0 6-6M126 198h6v6h-6zM138 198h-6v6a6 6 0 0 0 6-6M144 204h6v-6a6 6 0 0 0-6 6M150 198h6v6h-6zM156 198h6v6h-6zM174 198h6v6h-6zM180 198h6v6h-6zM192 198h6v6h-6zM198 198h6v6h-6zM210 198h-6v6a6 6 0 0 0 6-6M72 204h-6v6a6 6 0 0 0 6-6M84 204h-6v6a6 6 0 0 0 6-6M114 210h6v-6a6 6 0 0 0-6 6M120 204h6v6h-6zM132 204h-6v6a6 6 0 0 0 6-6M144 204h6v6h-6zM150 204h6v6h-6zM162 204h-6v6a6 6 0 0 0 6-6M174 204h6v6h-6zM186 204h-6v6a6 6 0 0 0 6-6"/></g></svg>