<svg xmlns="http://www.w3.org/2000/svg" width="200" height="200" data-dot="6" viewBox="0 0 246 246"><defs><linearGradient id="a" x1="12" x2="234" y1="123" y2="123" gradientUnits="userSpaceOnUse"><stop offset="0%" stop-color="#3a28a7"/><stop offset="100%" stop-color="#3a28a7"/></linearGradient></defs><g fill="url('#a')"><path d="M24 222v-18h18v18z"/><path d="M12 234h42v-42H12zm6-6v-30h30v30z" class="svgeye" clip-rule="evenodd"/><path d="M222 24v18h-18V24z"/><path d="M234 12h-42v42h42zm-6 6v30h-30V18z" class="svgeye" clip-rule="evenodd"/><path d="M24 24h18v18H24z"/><path d="M12 12v42h42V12zm6 6h30v30H18z" class="svgeye" clip-rule="evenodd"/><path d="M78 12h-3a3 3 0 0 0-3 3v3h3a3 3 0 0 0 3-3M84 18h6v-6a6 6 0 0 0-6 6M90 12h6v6h-6zM102 18h6v-6a6 6 0 0 0-6 6M108 12h6v6h-6zM120 18h6v-6a6 6 0 0 0-6 6M126 12h6v6h-6zM150 12h-3a3 3 0 0 0-3 3v3h3a3 3 0 0 0 3-3M156 18h6v-6a6 6 0 0 0-6 6M60 24h6v-6a6 6 0 0 0-6 6M90 18h6v6h-6zM108 18h6v6h-6zM120 18h-6v6a6 6 0 0 0 6-6M126 18h6v6h-6zM138 18h-6v6a6 6 0 0 0 6-6M150 24h6v-6a6 6 0 0 0-6 6M162 18h-6v6a6 6 0 0 0 6-6M174 18h-3a3 3 0 0 0-3 3v3h3a3 3 0 0 0 3-3M186 18h-3a3 3 0 0 0-3 3v3h3a3 3 0 0 0 3-3M60 24h6v6h-6zM66 24h6v6h-6zM78 24h-6v6a6 6 0 0 0 6-6M90 24h6v6h-6zM102 24h-6v6a6 6 0 0 0 6-6M162 30h6v-6a6 6 0 0 0-6 6M84 30h-3a3 3 0 0 0-3 3v3h3a3 3 0 0 0 3-3M96 30h-6v6a6 6 0 0 0 6-6M108 36h6v-6a6 6 0 0 0-6 6M114 30h6v6h-6zM156 36h6v-6a6 6 0 0 0-6 6M168 30h-6v6a6 6 0 0 0 6-6M174 36h6v-6a6 6 0 0 0-6 6M78 36h-3a3 3 0 0 0-3 3v3h3a3 3 0 0 0 3-3M90 36h-3a3 3 0 0 0-3 3v3h3a3 3 0 0 0 3-3M96 42h6v-6a6 6 0 0 0-6 6M108 36h-6v6a6 6 0 0 0 6-6M114 36h6v6h-6zM120 36h6v6h-6zM126 36h6v6h-6zM132 36h6v6h-6zM168 42h6v-6a6 6 0 0 0-6 6M180 36h-6v6a6 6 0 0 0 6-6M72 42h-3a3 3 0 0 0-3 3v3h3a3 3 0 0 0 3-3M90 48h6v-6a6 6 0 0 0-6 6M96 42h6v6h-6zM108 48h6v-6a6 6 0 0 0-6 6M120 42h6v6h-6zM126 42h6v6h-6zM132 42h6v6h-6zM144 48h6v-6a6 6 0 0 0-6 6M168 42h-3a3 3 0 0 0-3 3v3h3a3 3 0 0 0 3-3M66 48h-3a3 3 0 0 0-3 3v3h3a3 3 0 0 0 3-3M78 48h-3a3 3 0 0 0-3 3v3h3a3 3 0 0 0 3-3M90 48h-3a3 3 0 0 0-3 3v3h3a3 3 0 0 0 3-3M102 48h-6v6a6 6 0 0 0 6-6M114 48h-6v6a6 6 0 0 0 6-6M126 48h-6v6a6 6 0 0 0 6-6M132 48h6v6h-6zM150 48h-6v6a6 6 0 0 0 6-6M162 48h-3a3 3 0 0 0-3 3v3h3a3 3 0 0 0 3-3M174 48h-3a3 3 0 0 0-3 3v3h3a3 3 0 0 0 3-3M180 54h6v-6a6 6 0 0 0-6 6M78 60h6v-6a6 6 0 0 0-6 6M96 54h-3a3 3 0 0 0-3 3v3h3a3 3 0 0 0 3-3M138 54h-6v6a6 6 0 0 0 6-6M156 54h-3a3 3 0 0 0-3 3v3h3a3 3 0 0 0 3-3M174 60h6v-6a6 6 0 0 0-6 6M180 54h6v6h-6zM18 66h6v-6a6 6 0 0 0-6 6M24 60h6v6h-6zM36 60h-6v6a6 6 0 0 0 6-6M42 66h6v-6a6 6 0 0 0-6 6M54 60h-6v6a6 6 0 0 0 6-6M66 66h6v-6a6 6 0 0 0-6 6M72 60h6v6h-6zM78 60h6v6h-6zM90 60h-6v6a6 6 0 0 0 6-6M102 66h6v-6a6 6 0 0 0-6 6M108 60h6v6h-6zM114 60h6v6h-6zM120 60h6v6h-6zM126 60h6v6h-6zM138 66h6v-6a6 6 0 0 0-6 6M144 60h6v6h-6zM156 66h6v-6a6 6 0 0 0-6 6M162 60h6v6h-6zM174 60h6v6h-6zM180 60h6v6h-6zM216 66h6v-6a6 6 0 0 0-6 6M222 60h6v6h-6zM30 66h-6v6a6 6 0 0 0 6-6M66 66h6v6h-6zM72 66h6v6h-6zM84 66h-6v6a6 6 0 0 0 6-6M114 66h-6v6a6 6 0 0 0 6-6M120 66h6v6h-6zM126 66h6v6h-6zM132 66h6v6h-6zM138 66h6v6h-6zM144 66h6v6h-6zM150 66h6v6h-6zM156 66h6v6h-6zM162 66h6v6h-6zM168 66h6v6h-6zM174 66h6v6h-6zM186 66h-6v6a6 6 0 0 0 6-6M198 66h-3a3 3 0 0 0-3 3v3h3a3 3 0 0 0 3-3M216 66h-3a3 3 0 0 0-3 3v3h3a3 3 0 0 0 3-3M222 66h6v6h-6zM48 78h6v-6a6 6 0 0 0-6 6M54 72h6v6h-6zM60 72h6v6h-6zM72 72h-6v6a6 6 0 0 0 6-6M84 78h6v-6a6 6 0 0 0-6 6M90 72h6v6h-6zM102 72h-6v6a6 6 0 0 0 6-6M114 78h6v-6a6 6 0 0 0-6 6M120 72h6v6h-6zM126 72h6v6h-6zM156 72h-6v6a6 6 0 0 0 6-6M162 72h6v6h-6zM174 72h6v6h-6zM192 72h-3a3 3 0 0 0-3 3v3h3a3 3 0 0 0 3-3M210 72h-3a3 3 0 0 0-3 3v3h3a3 3 0 0 0 3-3M222 72h6v6h-6zM12 84h6v-6a6 6 0 0 0-6 6M60 78h-6v6a6 6 0 0 0 6-6M72 84h6v-6a6 6 0 0 0-6 6M78 78h6v6h-6zM84 78h6v6h-6zM90 78h6v6h-6zM102 84h6v-6a6 6 0 0 0-6 6M108 78h6v6h-6zM126 78h6v6h-6zM132 78h6v6h-6zM150 78h-3a3 3 0 0 0-3 3v3h3a3 3 0 0 0 3-3M162 78h6v6h-6zM168 78h6v6h-6zM180 78h-6v6a6 6 0 0 0 6-6M204 78h-3a3 3 0 0 0-3 3v3h3a3 3 0 0 0 3-3M216 84h6v-6a6 6 0 0 0-6 6M222 78h6v6h-6zM228 78h6v6h-6zM12 84h6v6h-6zM24 84h-6v6a6 6 0 0 0 6-6M42 84h-3a3 3 0 0 0-3 3v3h3a3 3 0 0 0 3-3M54 84h-3a3 3 0 0 0-3 3v3h3a3 3 0 0 0 3-3M60 90h6v-6a6 6 0 0 0-6 6M66 84h6v6h-6zM72 84h6v6h-6zM84 84h6v6h-6zM96 84h-6v6a6 6 0 0 0 6-6M108 84h6v6h-6zM138 84h-6v6a6 6 0 0 0 6-6M162 84h6v6h-6zM174 84h-6v6a6 6 0 0 0 6-6M186 90h6v-6a6 6 0 0 0-6 6M192 84h6v6h-6zM204 90h6v-6a6 6 0 0 0-6 6M210 84h6v6h-6zM216 84h6v6h-6zM222 84h6v6h-6zM228 84h6v6h-6zM12 90h6v6h-6zM42 96h6v-6a6 6 0 0 0-6 6M66 90h-6v6a6 6 0 0 0 6-6M72 90h6v6h-6zM90 90h-6v6a6 6 0 0 0 6-6M96 96h6v-6a6 6 0 0 0-6 6M102 90h6v6h-6zM108 90h6v6h-6zM132 90h-3a3 3 0 0 0-3 3v3h3a3 3 0 0 0 3-3M138 96h6v-6a6 6 0 0 0-6 6M156 96h6v-6a6 6 0 0 0-6 6M168 90h-6v6a6 6 0 0 0 6-6M180 90h-3a3 3 0 0 0-3 3v3h3a3 3 0 0 0 3-3M192 90h6v6h-6zM210 90h-6v6a6 6 0 0 0 6-6M216 90h6v6h-6zM234 90h-6v6a6 6 0 0 0 6-6M18 96h-6v6a6 6 0 0 0 6-6M24 102h6v-6a6 6 0 0 0-6 6M30 96h6v6h-6zM36 96h6v6h-6zM42 96h6v6h-6zM48 96h6v6h-6zM60 96h-6v6a6 6 0 0 0 6-6M66 102h6v-6a6 6 0 0 0-6 6M72 96h6v6h-6zM102 96h6v6h-6zM114 96h-6v6a6 6 0 0 0 6-6M132 102h6v-6a6 6 0 0 0-6 6M144 96h-6v6a6 6 0 0 0 6-6M156 96h6v6h-6zM168 102h6v-6a6 6 0 0 0-6 6M186 96h-3a3 3 0 0 0-3 3v3h3a3 3 0 0 0 3-3M192 96h6v6h-6zM198 96h6v6h-6zM216 96h6v6h-6zM222 96h6v6h-6zM24 102h6v6h-6zM30 102h6v6h-6zM60 108h6v-6a6 6 0 0 0-6 6M72 102h6v6h-6zM84 102h-6v6a6 6 0 0 0 6-6M96 108h6v-6a6 6 0 0 0-6 6M102 102h6v6h-6zM132 102h-3a3 3 0 0 0-3 3v3h3a3 3 0 0 0 3-3M162 102h-6v6a6 6 0 0 0 6-6M168 102h6v6h-6zM180 102h-6v6a6 6 0 0 0 6-6M198 102h6v6h-6zM222 102h6v6h-6zM228 102h6v6h-6zM12 114h6v-6a6 6 0 0 0-6 6M18 108h6v6h-6zM24 108h6v6h-6zM30 108h6v6h-6zM42 108h-6v6a6 6 0 0 0 6-6M54 108h-3a3 3 0 0 0-3 3v3h3a3 3 0 0 0 3-3M60 108h6v6h-6zM66 108h6v6h-6zM90 114h6v-6a6 6 0 0 0-6 6M96 108h6v6h-6zM102 108h6v6h-6zM108 108h6v6h-6zM114 108h6v6h-6zM120 108h6v6h-6zM138 108h-3a3 3 0 0 0-3 3v3h3a3 3 0 0 0 3-3M144 114h6v-6a6 6 0 0 0-6 6M156 108h-6v6a6 6 0 0 0 6-6M162 114h6v-6a6 6 0 0 0-6 6M180 114h6v-6a6 6 0 0 0-6 6M192 108h-6v6a6 6 0 0 0 6-6M204 108h-6v6a6 6 0 0 0 6-6M210 114h6v-6a6 6 0 0 0-6 6M216 108h6v6h-6zM222 108h6v6h-6zM228 108h6v6h-6zM48 114h-3a3 3 0 0 0-3 3v3h3a3 3 0 0 0 3-3M66 114h6v6h-6zM72 114h6v6h-6zM90 114h6v6h-6zM114 114h-6v6a6 6 0 0 0 6-6M120 114h6v6h-6zM132 114h-6v6a6 6 0 0 0 6-6M138 120h6v-6a6 6 0 0 0-6 6M144 114h6v6h-6zM156 120h6v-6a6 6 0 0 0-6 6M162 114h6v6h-6zM168 114h6v6h-6zM174 114h6v6h-6zM192 120h6v-6a6 6 0 0 0-6 6M222 114h-6v6a6 6 0 0 0 6-6M228 114h6v6h-6zM24 126h6v-6a6 6 0 0 0-6 6M42 120h-3a3 3 0 0 0-3 3v3h3a3 3 0 0 0 3-3M54 120h-3a3 3 0 0 0-3 3v3h3a3 3 0 0 0 3-3M66 120h-3a3 3 0 0 0-3 3v3h3a3 3 0 0 0 3-3M78 120h-6v6a6 6 0 0 0 6-6M84 126h6v-6a6 6 0 0 0-6 6M96 120h-6v6a6 6 0 0 0 6-6M102 126h6v-6a6 6 0 0 0-6 6M114 126h6v-6a6 6 0 0 0-6 6M126 120h-6v6a6 6 0 0 0 6-6M132 126h6v-6a6 6 0 0 0-6 6M144 120h6v6h-6zM150 120h6v6h-6zM156 120h6v6h-6zM174 120h6v6h-6zM192 120h6v6h-6zM204 120h-6v6a6 6 0 0 0 6-6M222 126h6v-6a6 6 0 0 0-6 6M234 120h-6v6a6 6 0 0 0 6-6M12 132h6v-6a6 6 0 0 0-6 6M18 126h6v6h-6zM24 126h6v6h-6zM30 126h6v6h-6zM60 126h-3a3 3 0 0 0-3 3v3h3a3 3 0 0 0 3-3M84 126h6v6h-6zM108 126h-6v6a6 6 0 0 0 6-6M114 126h6v6h-6zM138 126h-6v6a6 6 0 0 0 6-6M162 126h-6v6a6 6 0 0 0 6-6M168 132h6v-6a6 6 0 0 0-6 6M180 126h-6v6a6 6 0 0 0 6-6M192 126h-3a3 3 0 0 0-3 3v3h3a3 3 0 0 0 3-3M210 132h6v-6a6 6 0 0 0-6 6M12 132h6v6h-6zM36 132h-6v6a6 6 0 0 0 6-6M54 132h-3a3 3 0 0 0-3 3v3h3a3 3 0 0 0 3-3M60 138h6v-6a6 6 0 0 0-6 6M78 132h-3a3 3 0 0 0-3 3v3h3a3 3 0 0 0 3-3M84 132h6v6h-6zM96 138h6v-6a6 6 0 0 0-6 6M114 132h6v6h-6zM120 132h6v6h-6zM132 132h-6v6a6 6 0 0 0 6-6M144 132h-3a3 3 0 0 0-3 3v3h3a3 3 0 0 0 3-3M150 138h6v-6a6 6 0 0 0-6 6M186 132h-3a3 3 0 0 0-3 3v3h3a3 3 0 0 0 3-3M204 138h6v-6a6 6 0 0 0-6 6M210 132h6v6h-6zM12 138h6v6h-6zM24 138h-6v6a6 6 0 0 0 6-6M60 138h6v6h-6zM72 138h-6v6a6 6 0 0 0 6-6M78 144h6v-6a6 6 0 0 0-6 6M84 138h6v6h-6zM90 138h6v6h-6zM96 138h6v6h-6zM102 138h6v6h-6zM108 138h6v6h-6zM120 138h-6v6a6 6 0 0 0 6-6M150 138h6v6h-6zM156 138h6v6h-6zM162 138h6v6h-6zM204 138h-3a3 3 0 0 0-3 3v3h3a3 3 0 0 0 3-3M216 138h-6v6a6 6 0 0 0 6-6M42 144h-3a3 3 0 0 0-3 3v3h3a3 3 0 0 0 3-3M48 150h6v-6a6 6 0 0 0-6 6M60 144h-6v6a6 6 0 0 0 6-6M72 150h6v-6a6 6 0 0 0-6 6M96 144h-6v6a6 6 0 0 0 6-6M138 144h-3a3 3 0 0 0-3 3v3h3a3 3 0 0 0 3-3M156 144h-6v6a6 6 0 0 0 6-6M168 144h-6v6a6 6 0 0 0 6-6M192 150h6v-6a6 6 0 0 0-6 6M210 144h-3a3 3 0 0 0-3 3v3h3a3 3 0 0 0 3-3M228 144h-3a3 3 0 0 0-3 3v3h3a3 3 0 0 0 3-3M30 150h-3a3 3 0 0 0-3 3v3h3a3 3 0 0 0 3-3M42 156h6v-6a6 6 0 0 0-6 6M72 150h6v6h-6zM78 150h6v6h-6zM84 150h6v6h-6zM108 150h-3a3 3 0 0 0-3 3v3h3a3 3 0 0 0 3-3M120 156h6v-6a6 6 0 0 0-6 6M126 150h6v6h-6zM150 150h-3a3 3 0 0 0-3 3v3h3a3 3 0 0 0 3-3M174 156h6v-6a6 6 0 0 0-6 6M180 150h6v6h-6zM198 150h-6v6a6 6 0 0 0 6-6M216 156h6v-6a6 6 0 0 0-6 6M12 162h6v-6a6 6 0 0 0-6 6M18 156h6v6h-6zM36 162h6v-6a6 6 0 0 0-6 6M42 156h6v6h-6zM54 156h-6v6a6 6 0 0 0 6-6M66 156h-3a3 3 0 0 0-3 3v3h3a3 3 0 0 0 3-3M84 156h6v6h-6zM90 156h6v6h-6zM102 156h-6v6a6 6 0 0 0 6-6M108 162h6v-6a6 6 0 0 0-6 6M114 156h6v6h-6zM126 156h6v6h-6zM132 156h6v6h-6zM168 162h6v-6a6 6 0 0 0-6 6M180 156h6v6h-6zM186 156h6v6h-6zM204 162h6v-6a6 6 0 0 0-6 6M222 156h-6v6a6 6 0 0 0 6-6M228 162h6v-6a6 6 0 0 0-6 6M18 162h6v6h-6zM42 162h-6v6a6 6 0 0 0 6-6M66 168h6v-6a6 6 0 0 0-6 6M84 162h-3a3 3 0 0 0-3 3v3h3a3 3 0 0 0 3-3M96 162h-6v6a6 6 0 0 0 6-6M108 162h6v6h-6zM114 162h6v6h-6zM120 162h6v6h-6zM132 162h6v6h-6zM144 168h6v-6a6 6 0 0 0-6 6M174 162h-6v6a6 6 0 0 0 6-6M192 162h-6v6a6 6 0 0 0 6-6M210 162h-6v6a6 6 0 0 0 6-6M234 162h-6v6a6 6 0 0 0 6-6M18 168h6v6h-6zM24 168h6v6h-6zM42 174h6v-6a6 6 0 0 0-6 6M48 168h6v6h-6zM54 168h6v6h-6zM60 168h6v6h-6zM66 168h6v6h-6zM84 174h6v-6a6 6 0 0 0-6 6M114 168h6v6h-6zM126 168h-6v6a6 6 0 0 0 6-6M138 168h-6v6a6 6 0 0 0 6-6M150 168h-6v6a6 6 0 0 0 6-6M156 174h6v-6a6 6 0 0 0-6 6M168 168h-6v6a6 6 0 0 0 6-6M204 168h-3a3 3 0 0 0-3 3v3h3a3 3 0 0 0 3-3M222 168h-3a3 3 0 0 0-3 3v3h3a3 3 0 0 0 3-3M18 174h-3a3 3 0 0 0-3 3v3h3a3 3 0 0 0 3-3M24 174h6v6h-6zM48 174h-6v6a6 6 0 0 0 6-6M72 174h-6v6a6 6 0 0 0 6-6M78 180h6v-6a6 6 0 0 0-6 6M84 174h6v6h-6zM90 174h6v6h-6zM96 174h6v6h-6zM102 174h6v6h-6zM108 174h6v6h-6zM120 174h-6v6a6 6 0 0 0 6-6M126 180h6v-6a6 6 0 0 0-6 6M138 180h6v-6a6 6 0 0 0-6 6M156 174h-3a3 3 0 0 0-3 3v3h3a3 3 0 0 0 3-3M180 174h-3a3 3 0 0 0-3 3v3h3a3 3 0 0 0 3-3M186 180h6v-6a6 6 0 0 0-6 6M216 174h-3a3 3 0 0 0-3 3v3h3a3 3 0 0 0 3-3M228 180h6v-6a6 6 0 0 0-6 6M24 180h6v6h-6zM36 180h-6v6a6 6 0 0 0 6-6M54 180h-3a3 3 0 0 0-3 3v3h3a3 3 0 0 0 3-3M60 186h6v-6a6 6 0 0 0-6 6M78 180h6v6h-6zM102 180h-6v6a6 6 0 0 0 6-6M114 180h-6v6a6 6 0 0 0 6-6M120 186h6v-6a6 6 0 0 0-6 6M132 180h-6v6a6 6 0 0 0 6-6M144 180h-6v6a6 6 0 0 0 6-6M162 186h6v-6a6 6 0 0 0-6 6M180 186h6v-6a6 6 0 0 0-6 6M186 180h6v6h-6zM192 180h6v6h-6zM198 180h6v6h-6zM204 180h6v6h-6zM216 186h6v-6a6 6 0 0 0-6 6M222 180h6v6h-6zM228 180h6v6h-6zM60 186h6v6h-6zM66 186h6v6h-6zM78 186h6v6h-6zM84 186h6v6h-6zM90 186h6v6h-6zM138 186h-3a3 3 0 0 0-3 3v3h3a3 3 0 0 0 3-3M144 192h6v-6a6 6 0 0 0-6 6M150 186h6v6h-6zM156 186h6v6h-6zM168 186h-6v6a6 6 0 0 0 6-6M180 186h6v6h-6zM204 186h6v6h-6zM210 186h6v6h-6zM216 186h6v6h-6zM222 186h6v6h-6zM228 186h6v6h-6zM66 192h6v6h-6zM78 192h-6v6a6 6 0 0 0 6-6M84 192h6v6h-6zM90 192h6v6h-6zM96 192h6v6h-6zM102 192h6v6h-6zM108 192h6v6h-6zM114 192h6v6h-6zM120 192h6v6h-6zM144 192h-3a3 3 0 0 0-3 3v3h3a3 3 0 0 0 3-3M156 192h6v6h-6zM180 192h6v6h-6zM198 192h-3a3 3 0 0 0-3 3v3h3a3 3 0 0 0 3-3M204 192h6v6h-6zM210 192h6v6h-6zM222 192h6v6h-6zM234 192h-6v6a6 6 0 0 0 6-6M66 198h-3a3 3 0 0 0-3 3v3h3a3 3 0 0 0 3-3M78 204h6v-6a6 6 0 0 0-6 6M90 198h-6v6a6 6 0 0 0 6-6M108 198h6v6h-6zM114 198h6v6h-6zM120 198h6v6h-6zM126 198h6v6h-6zM138 198h-6v6a6 6 0 0 0 6-6M144 204h6v-6a6 6 0 0 0-6 6M150 198h6v6h-6zM156 198h6v6h-6zM174 198h-3a3 3 0 0 0-3 3v3h3a3 3 0 0 0 3-3M180 198h6v6h-6zM204 198h6v6h-6zM210 198h6v6h-6zM66 210h6v-6a6 6 0 0 0-6 6M78 204h6v6h-6zM96 210h6v-6a6 6 0 0 0-6 6M102 204h6v6h-6zM108 204h6v6h-6zM114 204h6v6h-6zM144 204h6v6h-6zM150 204h6v6h-6zM156 204h6v6h-6zM180 204h6v6h-6zM186 204h6v6h-6zM192 204h6v6h-6zM198 204h6v6h-6zM204 204h6v6h-6zM216 204h-6v6a6 6 0 0 0 6-6M222 210h6v-6a6 6 0 0 0-6 6M234 204h-6v6a6 6 0 0 0 6-6M60 216h6v-6a6 6 0 0 0-6 6M66 210h6v6h-6zM72 210h6v6h-6zM78 210h6v6h-6zM84 210h6v6h-6zM108 210h6v6h-6zM120 210h-6v6a6 6 0 0 0 6-6M132 216h6v-6a6 6 0 0 0-6 6M138 210h6v6h-6zM150 210h-6v6a6 6 0 0 0 6-6M156 210h6v6h-6zM180 210h-3a3 3 0 0 0-3 3v3h3a3 3 0 0 0 3-3M192 210h6v6h-6zM198 210h6v6h-6zM204 210h6v6h-6zM222 210h6v6h-6zM60 216h6v6h-6zM90 216h-6v6a6 6 0 0 0 6-6M96 222h6v-6a6 6 0 0 0-6 6M108 216h6v6h-6zM126 222h6v-6a6 6 0 0 0-6 6M132 216h6v6h-6zM150 222h6v-6a6 6 0 0 0-6 6M162 216h-6v6a6 6 0 0 0 6-6M174 216h-3a3 3 0 0 0-3 3v3h3a3 3 0 0 0 3-3M192 216h6v6h-6zM204 216h6v6h-6zM210 216h6v6h-6zM228 216h-6v6a6 6 0 0 0 6-6M60 222h6v6h-6zM72 222h-6v6a6 6 0 0 0 6-6M96 222h6v6h-6zM102 222h6v6h-6zM108 222h6v6h-6zM120 228h6v-6a6 6 0 0 0-6 6M138 222h-6v6a6 6 0 0 0 6-6M150 222h-3a3 3 0 0 0-3 3v3h3a3 3 0 0 0 3-3M162 228h6v-6a6 6 0 0 0-6 6M180 222h-3a3 3 0 0 0-3 3v3h3a3 3 0 0 0 3-3M186 228h6v-6a6 6 0 0 0-6 6M198 222h-6v6a6 6 0 0 0 6-6M204 222h6v6h-6zM210 222h6v6h-6zM216 222h6v6h-6zM78 228h-3a3 3 0 0 0-3 3v3h3a3 3 0 0 0 3-3M102 228h6v6h-6zM114 228h-6v6a6 6 0 0 0 6-6M120 228h6v6h-6zM132 228h-6v6a6 6 0 0 0 6-6M156 234h6v-6a6 6 0 0 0-6 6M168 228h-6v6a6 6 0 0 0 6-6M210 228h6v6h-6zM216 228h6v6h-6zM222 228h6v6h-6zM234 228h-6v6a6 6 0 0 0 6-6"/></g></svg>