<svg xmlns:xlink="http://www.w3.org/1999/xlink" xmlns="http://www.w3.org/2000/svg" id="map" viewBox="0 0 231 231" width="200" height="200" data-dot="7"><defs><linearGradient id="dot-color" gradientUnits="userSpaceOnUse" x1="179" y1="14" x2="52" y2="217"><stop offset="0%" stop-color="#00ffff"/><stop offset="100%" stop-color="#0000ff"/></linearGradient></defs><g fill="url('#dot-color')"><rect x="28" y="182" width="21" height="21" rx="7" ry="7" transform="rotate(-90,38.5,192.5)"/><path clip-rule="evenodd" class="svgeye" d="M 14 185.5v 14a 17.5 17.5, 0, 0, 0, 17.5 17.5h 14a 17.5 17.5, 0, 0, 0, 17.5 -17.5v -14a 17.5 17.5, 0, 0, 0, -17.5 -17.5h -14a 17.5 17.5, 0, 0, 0, -17.5 17.5M 31.5 175h 14a 10.5 10.5, 0, 0, 1, 10.5 10.5v 14a 10.5 10.5, 0, 0, 1, -10.5 10.5h -14a 10.5 10.5, 0, 0, 1, -10.5 -10.5v -14a 10.5 10.5, 0, 0, 1, 10.5 -10.5" transform="rotate(-90,38.5,192.5)"/><rect x="182" y="28" width="21" height="21" rx="7" ry="7" transform="rotate(90,192.5,38.5)"/><path clip-rule="evenodd" class="svgeye" d="M 168 31.5v 14a 17.5 17.5, 0, 0, 0, 17.5 17.5h 14a 17.5 17.5, 0, 0, 0, 17.5 -17.5v -14a 17.5 17.5, 0, 0, 0, -17.5 -17.5h -14a 17.5 17.5, 0, 0, 0, -17.5 17.5M 185.5 21h 14a 10.5 10.5, 0, 0, 1, 10.5 10.5v 14a 10.5 10.5, 0, 0, 1, -10.5 10.5h -14a 10.5 10.5, 0, 0, 1, -10.5 -10.5v -14a 10.5 10.5, 0, 0, 1, 10.5 -10.5" transform="rotate(90,192.5,38.5)"/><rect x="28" y="28" width="21" height="21" rx="7" ry="7" transform="rotate(0,38.5,38.5)"/><path clip-rule="evenodd" class="svgeye" d="M 14 31.5v 14a 17.5 17.5, 0, 0, 0, 17.5 17.5h 14a 17.5 17.5, 0, 0, 0, 17.5 -17.5v -14a 17.5 17.5, 0, 0, 0, -17.5 -17.5h -14a 17.5 17.5, 0, 0, 0, -17.5 17.5M 31.5 21h 14a 10.5 10.5, 0, 0, 1, 10.5 10.5v 14a 10.5 10.5, 0, 0, 1, -10.5 10.5h -14a 10.5 10.5, 0, 0, 1, -10.5 -10.5v -14a 10.5 10.5, 0, 0, 1, 10.5 -10.5" transform="rotate(0,38.5,38.5)"/><path d="M 70 14v 7h 7a 7 7, 0, 0, 0, -7 -7" transform="rotate(-90,73.5,17.5)"/><path d="M 84 14v 3.5a 3.5 3.5, 0, 0, 0, 3.5 3.5h 3.5v -3.5a 3.5 3.5, 0, 0, 0, -3.5 -3.5" transform="rotate(90,87.5,17.5)"/><path d="M 112 14v 7h 7a 7 7, 0, 0, 0, -7 -7" transform="rotate(-90,115.5,17.5)"/><path d="M 147 14v 7h 7a 7 7, 0, 0, 0, -7 -7" transform="rotate(-90,150.5,17.5)"/><rect x="154" y="14" width="7" height="7" transform="rotate(0,157.5,17.5)"/><rect x="70" y="21" width="7" height="7" transform="rotate(0,73.5,24.5)"/><path d="M 77 21v 7h 7a 7 7, 0, 0, 0, -7 -7" transform="rotate(90,80.5,24.5)"/><rect x="112" y="21" width="7" height="7" transform="rotate(0,115.5,24.5)"/><path d="M 119 21v 7h 7a 7 7, 0, 0, 0, -7 -7" transform="rotate(90,122.5,24.5)"/><path d="M 154 21v 7h 7a 7 7, 0, 0, 0, -7 -7" transform="rotate(90,157.5,24.5)"/><path d="M 84 28v 7h 7a 7 7, 0, 0, 0, -7 -7" transform="rotate(-90,87.5,31.5)"/><rect x="91" y="28" width="7" height="7" transform="rotate(0,94.5,31.5)"/><path d="M 112 28v 7h 7a 7 7, 0, 0, 0, -7 -7" transform="rotate(90,115.5,31.5)"/><path d="M 91 35v 7h 7a 7 7, 0, 0, 0, -7 -7" transform="rotate(90,94.5,38.5)"/><path d="M 126 35v 7h 7a 7 7, 0, 0, 0, -7 -7" transform="rotate(-90,129.5,38.5)"/><rect x="133" y="35" width="7" height="7" transform="rotate(0,136.5,38.5)"/><path d="M 154 35v 7h 7a 7 7, 0, 0, 0, -7 -7" transform="rotate(-90,157.5,38.5)"/><path d="M 77 42v 3.5a 3.5 3.5, 0, 0, 0, 3.5 3.5h 3.5v -3.5a 3.5 3.5, 0, 0, 0, -3.5 -3.5" transform="rotate(90,80.5,45.5)"/><path d="M 105 42v 7h 7a 7 7, 0, 0, 0, -7 -7" transform="rotate(-90,108.5,45.5)"/><rect x="112" y="42" width="7" height="7" transform="rotate(0,115.5,45.5)"/><rect x="126" y="42" width="7" height="7" transform="rotate(0,129.5,45.5)"/><rect x="133" y="42" width="7" height="7" transform="rotate(0,136.5,45.5)"/><rect x="140" y="42" width="7" height="7" transform="rotate(0,143.5,45.5)"/><rect x="147" y="42" width="7" height="7" transform="rotate(0,150.5,45.5)"/><path d="M 154 42v 7h 7a 7 7, 0, 0, 0, -7 -7" transform="rotate(90,157.5,45.5)"/><path d="M 98 49v 7h 7a 7 7, 0, 0, 0, -7 -7" transform="rotate(-90,101.5,52.5)"/><rect x="105" y="49" width="7" height="7" transform="rotate(0,108.5,52.5)"/><rect x="112" y="49" width="7" height="7" transform="rotate(0,115.5,52.5)"/><path d="M 133 49v 7h 7a 7 7, 0, 0, 0, -7 -7" transform="rotate(90,136.5,52.5)"/><path d="M 70 56v 3.5a 3.5 3.5, 0, 0, 0, 3.5 3.5h 3.5v -3.5a 3.5 3.5, 0, 0, 0, -3.5 -3.5" transform="rotate(90,73.5,59.5)"/><path d="M 84 56v 3.5a 3.5 3.5, 0, 0, 0, 3.5 3.5h 3.5v -3.5a 3.5 3.5, 0, 0, 0, -3.5 -3.5" transform="rotate(90,87.5,59.5)"/><path d="M 98 56v 7h 7a 7 7, 0, 0, 0, -7 -7" transform="rotate(90,101.5,59.5)"/><path d="M 112 56v 7h 7a 7 7, 0, 0, 0, -7 -7" transform="rotate(90,115.5,59.5)"/><path d="M 126 56v 7h 7a 7 7, 0, 0, 0, -7 -7" transform="rotate(-90,129.5,59.5)"/><path d="M 140 56v 7h 7a 7 7, 0, 0, 0, -7 -7" transform="rotate(-90,143.5,59.5)"/><path d="M 154 56v 7h 7a 7 7, 0, 0, 0, -7 -7" transform="rotate(-90,157.5,59.5)"/><path d="M 105 63v 3.5a 3.5 3.5, 0, 0, 0, 3.5 3.5h 3.5v -3.5a 3.5 3.5, 0, 0, 0, -3.5 -3.5" transform="rotate(90,108.5,66.5)"/><path d="M 119 63v 7h 7a 7 7, 0, 0, 0, -7 -7" transform="rotate(-90,122.5,66.5)"/><rect x="126" y="63" width="7" height="7" transform="rotate(0,129.5,66.5)"/><rect x="133" y="63" width="7" height="7" transform="rotate(0,136.5,66.5)"/><rect x="140" y="63" width="7" height="7" transform="rotate(0,143.5,66.5)"/><rect x="147" y="63" width="7" height="7" transform="rotate(0,150.5,66.5)"/><path d="M 154 63v 7h 7a 7 7, 0, 0, 0, -7 -7" transform="rotate(90,157.5,66.5)"/><path d="M 21 70v 7h 7a 7 7, 0, 0, 0, -7 -7" transform="rotate(-90,24.5,73.5)"/><path d="M 56 70v 7h 7a 7 7, 0, 0, 0, -7 -7" transform="rotate(-90,59.5,73.5)"/><rect x="63" y="70" width="7" height="7" transform="rotate(0,66.5,73.5)"/><rect x="70" y="70" width="7" height="7" transform="rotate(0,73.5,73.5)"/><rect x="77" y="70" width="7" height="7" transform="rotate(0,80.5,73.5)"/><rect x="84" y="70" width="7" height="7" transform="rotate(0,87.5,73.5)"/><rect x="119" y="70" width="7" height="7" transform="rotate(0,122.5,73.5)"/><rect x="126" y="70" width="7" height="7" transform="rotate(0,129.5,73.5)"/><path d="M 147 70v 7h 7a 7 7, 0, 0, 0, -7 -7" transform="rotate(90,150.5,73.5)"/><path d="M 161 70v 3.5a 3.5 3.5, 0, 0, 0, 3.5 3.5h 3.5v -3.5a 3.5 3.5, 0, 0, 0, -3.5 -3.5" transform="rotate(90,164.5,73.5)"/><path d="M 203 70v 7h 7a 7 7, 0, 0, 0, -7 -7" transform="rotate(-90,206.5,73.5)"/><path d="M 210 70v 7h 7a 7 7, 0, 0, 0, -7 -7" transform="rotate(90,213.5,73.5)"/><path d="M 14 77v 7h 7a 7 7, 0, 0, 0, -7 -7" transform="rotate(-90,17.5,80.5)"/><path d="M 21 77v 7h 7a 7 7, 0, 0, 0, -7 -7" transform="rotate(90,24.5,80.5)"/><path d="M 35 77v 7h 7a 7 7, 0, 0, 0, -7 -7" transform="rotate(-90,38.5,80.5)"/><rect x="42" y="77" width="7" height="7" transform="rotate(0,45.5,80.5)"/><rect x="49" y="77" width="7" height="7" transform="rotate(0,52.5,80.5)"/><rect x="84" y="77" width="7" height="7" transform="rotate(0,87.5,80.5)"/><rect x="91" y="77" width="7" height="7" transform="rotate(0,94.5,80.5)"/><path d="M 98 77v 7h 7a 7 7, 0, 0, 0, -7 -7" transform="rotate(90,101.5,80.5)"/><path d="M 112 77v 7h 7a 7 7, 0, 0, 0, -7 -7" transform="rotate(-90,115.5,80.5)"/><rect x="119" y="77" width="7" height="7" transform="rotate(0,122.5,80.5)"/><rect x="126" y="77" width="7" height="7" transform="rotate(0,129.5,80.5)"/><path d="M 140 77v 3.5a 3.5 3.5, 0, 0, 0, 3.5 3.5h 3.5v -3.5a 3.5 3.5, 0, 0, 0, -3.5 -3.5" transform="rotate(90,143.5,80.5)"/><path d="M 168 77v 7h 7a 7 7, 0, 0, 0, -7 -7" transform="rotate(-90,171.5,80.5)"/><path d="M 175 77v 7h 7a 7 7, 0, 0, 0, -7 -7" transform="rotate(90,178.5,80.5)"/><path d="M 203 77v 7h 7a 7 7, 0, 0, 0, -7 -7" transform="rotate(90,206.5,80.5)"/><path d="M 14 84v 7h 7a 7 7, 0, 0, 0, -7 -7" transform="rotate(90,17.5,87.5)"/><path d="M 28 84v 7h 7a 7 7, 0, 0, 0, -7 -7" transform="rotate(-90,31.5,87.5)"/><rect x="49" y="84" width="7" height="7" transform="rotate(0,52.5,87.5)"/><rect x="56" y="84" width="7" height="7" transform="rotate(0,59.5,87.5)"/><rect x="63" y="84" width="7" height="7" transform="rotate(0,66.5,87.5)"/><rect x="70" y="84" width="7" height="7" transform="rotate(0,73.5,87.5)"/><rect x="77" y="84" width="7" height="7" transform="rotate(0,80.5,87.5)"/><path d="M 84 84v 7h 7a 7 7, 0, 0, 0, -7 -7" transform="rotate(90,87.5,87.5)"/><path d="M 105 84v 7h 7a 7 7, 0, 0, 0, -7 -7" transform="rotate(-90,108.5,87.5)"/><path d="M 112 84v 7h 7a 7 7, 0, 0, 0, -7 -7" transform="rotate(90,115.5,87.5)"/><path d="M 126 84v 7h 7a 7 7, 0, 0, 0, -7 -7" transform="rotate(90,129.5,87.5)"/><path d="M 147 84v 7h 7a 7 7, 0, 0, 0, -7 -7" transform="rotate(-90,150.5,87.5)"/><path d="M 161 84v 7h 7a 7 7, 0, 0, 0, -7 -7" transform="rotate(-90,164.5,87.5)"/><rect x="168" y="84" width="7" height="7" transform="rotate(0,171.5,87.5)"/><rect x="28" y="91" width="7" height="7" transform="rotate(0,31.5,94.5)"/><rect x="35" y="91" width="7" height="7" transform="rotate(0,38.5,94.5)"/><rect x="42" y="91" width="7" height="7" transform="rotate(0,45.5,94.5)"/><path d="M 49 91v 7h 7a 7 7, 0, 0, 0, -7 -7" transform="rotate(90,52.5,94.5)"/><path d="M 91 91v 7h 7a 7 7, 0, 0, 0, -7 -7" transform="rotate(-90,94.5,94.5)"/><rect x="98" y="91" width="7" height="7" transform="rotate(0,101.5,94.5)"/><rect x="105" y="91" width="7" height="7" transform="rotate(0,108.5,94.5)"/><path d="M 119 91v 7h 7a 7 7, 0, 0, 0, -7 -7" transform="rotate(-90,122.5,94.5)"/><rect x="147" y="91" width="7" height="7" transform="rotate(0,150.5,94.5)"/><rect x="154" y="91" width="7" height="7" transform="rotate(0,157.5,94.5)"/><rect x="168" y="91" width="7" height="7" transform="rotate(0,171.5,94.5)"/><path d="M 175 91v 7h 7a 7 7, 0, 0, 0, -7 -7" transform="rotate(90,178.5,94.5)"/><path d="M 189 91v 3.5a 3.5 3.5, 0, 0, 0, 3.5 3.5h 3.5v -3.5a 3.5 3.5, 0, 0, 0, -3.5 -3.5" transform="rotate(90,192.5,94.5)"/><rect x="28" y="98" width="7" height="7" transform="rotate(0,31.5,101.5)"/><path d="M 56 98v 7h 7a 7 7, 0, 0, 0, -7 -7" transform="rotate(-90,59.5,101.5)"/><rect x="63" y="98" width="7" height="7" transform="rotate(0,66.5,101.5)"/><path d="M 70 98v 7h 7a 7 7, 0, 0, 0, -7 -7" transform="rotate(90,73.5,101.5)"/><rect x="98" y="98" width="7" height="7" transform="rotate(0,101.5,101.5)"/><path d="M 105 98v 7h 7a 7 7, 0, 0, 0, -7 -7" transform="rotate(90,108.5,101.5)"/><rect x="119" y="98" width="7" height="7" transform="rotate(0,122.5,101.5)"/><path d="M 126 98v 7h 7a 7 7, 0, 0, 0, -7 -7" transform="rotate(90,129.5,101.5)"/><path d="M 140 98v 7h 7a 7 7, 0, 0, 0, -7 -7" transform="rotate(-90,143.5,101.5)"/><rect x="154" y="98" width="7" height="7" transform="rotate(0,157.5,101.5)"/><rect x="161" y="98" width="7" height="7" transform="rotate(0,164.5,101.5)"/><rect x="168" y="98" width="7" height="7" transform="rotate(0,171.5,101.5)"/><path d="M 203 98v 3.5a 3.5 3.5, 0, 0, 0, 3.5 3.5h 3.5v -3.5a 3.5 3.5, 0, 0, 0, -3.5 -3.5" transform="rotate(90,206.5,101.5)"/><path d="M 14 105v 7h 7a 7 7, 0, 0, 0, -7 -7" transform="rotate(-90,17.5,108.5)"/><rect x="21" y="105" width="7" height="7" transform="rotate(0,24.5,108.5)"/><path d="M 28 105v 7h 7a 7 7, 0, 0, 0, -7 -7" transform="rotate(90,31.5,108.5)"/><path d="M 42 105v 3.5a 3.5 3.5, 0, 0, 0, 3.5 3.5h 3.5v -3.5a 3.5 3.5, 0, 0, 0, -3.5 -3.5" transform="rotate(90,45.5,108.5)"/><path d="M 84 105v 3.5a 3.5 3.5, 0, 0, 0, 3.5 3.5h 3.5v -3.5a 3.5 3.5, 0, 0, 0, -3.5 -3.5" transform="rotate(90,87.5,108.5)"/><rect x="140" y="105" width="7" height="7" transform="rotate(0,143.5,108.5)"/><path d="M 147 105v 7h 7a 7 7, 0, 0, 0, -7 -7" transform="rotate(90,150.5,108.5)"/><path d="M 168 105v 7h 7a 7 7, 0, 0, 0, -7 -7" transform="rotate(90,171.5,108.5)"/><path d="M 182 105v 7h 7a 7 7, 0, 0, 0, -7 -7" transform="rotate(-90,185.5,108.5)"/><path d="M 189 105v 7h 7a 7 7, 0, 0, 0, -7 -7" transform="rotate(90,192.5,108.5)"/><path d="M 210 105v 3.5a 3.5 3.5, 0, 0, 0, 3.5 3.5h 3.5v -3.5a 3.5 3.5, 0, 0, 0, -3.5 -3.5" transform="rotate(90,213.5,108.5)"/><rect x="14" y="112" width="7" height="7" transform="rotate(0,17.5,115.5)"/><path d="M 35 112v 3.5a 3.5 3.5, 0, 0, 0, 3.5 3.5h 3.5v -3.5a 3.5 3.5, 0, 0, 0, -3.5 -3.5" transform="rotate(90,38.5,115.5)"/><path d="M 49 112v 7h 7a 7 7, 0, 0, 0, -7 -7" transform="rotate(-90,52.5,115.5)"/><rect x="56" y="112" width="7" height="7" transform="rotate(0,59.5,115.5)"/><rect x="63" y="112" width="7" height="7" transform="rotate(0,66.5,115.5)"/><rect x="70" y="112" width="7" height="7" transform="rotate(0,73.5,115.5)"/><path d="M 77 112v 7h 7a 7 7, 0, 0, 0, -7 -7" transform="rotate(90,80.5,115.5)"/><path d="M 91 112v 7h 7a 7 7, 0, 0, 0, -7 -7" transform="rotate(-90,94.5,115.5)"/><path d="M 112 112v 7h 7a 7 7, 0, 0, 0, -7 -7" transform="rotate(-90,115.5,115.5)"/><rect x="119" y="112" width="7" height="7" transform="rotate(0,122.5,115.5)"/><path d="M 140 112v 7h 7a 7 7, 0, 0, 0, -7 -7" transform="rotate(90,143.5,115.5)"/><path d="M 161 112v 7h 7a 7 7, 0, 0, 0, -7 -7" transform="rotate(-90,164.5,115.5)"/><path d="M 175 112v 3.5a 3.5 3.5, 0, 0, 0, 3.5 3.5h 3.5v -3.5a 3.5 3.5, 0, 0, 0, -3.5 -3.5" transform="rotate(90,178.5,115.5)"/><rect x="14" y="119" width="7" height="7" transform="rotate(0,17.5,122.5)"/><path d="M 21 119v 7h 7a 7 7, 0, 0, 0, -7 -7" transform="rotate(90,24.5,122.5)"/><path d="M 42 119v 7h 7a 7 7, 0, 0, 0, -7 -7" transform="rotate(-90,45.5,122.5)"/><rect x="49" y="119" width="7" height="7" transform="rotate(0,52.5,122.5)"/><rect x="63" y="119" width="7" height="7" transform="rotate(0,66.5,122.5)"/><path d="M 70 119v 7h 7a 7 7, 0, 0, 0, -7 -7" transform="rotate(90,73.5,122.5)"/><path d="M 84 119v 7h 7a 7 7, 0, 0, 0, -7 -7" transform="rotate(-90,87.5,122.5)"/><rect x="91" y="119" width="7" height="7" transform="rotate(0,94.5,122.5)"/><rect x="98" y="119" width="7" height="7" transform="rotate(0,101.5,122.5)"/><rect x="105" y="119" width="7" height="7" transform="rotate(0,108.5,122.5)"/><rect x="119" y="119" width="7" height="7" transform="rotate(0,122.5,122.5)"/><rect x="161" y="119" width="7" height="7" transform="rotate(0,164.5,122.5)"/><path d="M 168 119v 7h 7a 7 7, 0, 0, 0, -7 -7" transform="rotate(90,171.5,122.5)"/><path d="M 182 119v 7h 7a 7 7, 0, 0, 0, -7 -7" transform="rotate(-90,185.5,122.5)"/><rect x="189" y="119" width="7" height="7" transform="rotate(0,192.5,122.5)"/><rect x="196" y="119" width="7" height="7" transform="rotate(0,199.5,122.5)"/><rect x="203" y="119" width="7" height="7" transform="rotate(0,206.5,122.5)"/><path d="M 210 119v 7h 7a 7 7, 0, 0, 0, -7 -7" transform="rotate(90,213.5,122.5)"/><rect x="14" y="126" width="7" height="7" transform="rotate(0,17.5,129.5)"/><rect x="42" y="126" width="7" height="7" transform="rotate(0,45.5,129.5)"/><rect x="49" y="126" width="7" height="7" transform="rotate(0,52.5,129.5)"/><rect x="56" y="126" width="7" height="7" transform="rotate(0,59.5,129.5)"/><rect x="63" y="126" width="7" height="7" transform="rotate(0,66.5,129.5)"/><rect x="98" y="126" width="7" height="7" transform="rotate(0,101.5,129.5)"/><rect x="105" y="126" width="7" height="7" transform="rotate(0,108.5,129.5)"/><path d="M 119 126v 7h 7a 7 7, 0, 0, 0, -7 -7" transform="rotate(90,122.5,129.5)"/><path d="M 140 126v 3.5a 3.5 3.5, 0, 0, 0, 3.5 3.5h 3.5v -3.5a 3.5 3.5, 0, 0, 0, -3.5 -3.5" transform="rotate(90,143.5,129.5)"/><path d="M 154 126v 7h 7a 7 7, 0, 0, 0, -7 -7" transform="rotate(-90,157.5,129.5)"/><rect x="161" y="126" width="7" height="7" transform="rotate(0,164.5,129.5)"/><rect x="182" y="126" width="7" height="7" transform="rotate(0,185.5,129.5)"/><rect x="189" y="126" width="7" height="7" transform="rotate(0,192.5,129.5)"/><rect x="196" y="126" width="7" height="7" transform="rotate(0,199.5,129.5)"/><path d="M 203 126v 7h 7a 7 7, 0, 0, 0, -7 -7" transform="rotate(90,206.5,129.5)"/><rect x="14" y="133" width="7" height="7" transform="rotate(0,17.5,136.5)"/><path d="M 28 133v 3.5a 3.5 3.5, 0, 0, 0, 3.5 3.5h 3.5v -3.5a 3.5 3.5, 0, 0, 0, -3.5 -3.5" transform="rotate(90,31.5,136.5)"/><rect x="63" y="133" width="7" height="7" transform="rotate(0,66.5,136.5)"/><rect x="70" y="133" width="7" height="7" transform="rotate(0,73.5,136.5)"/><rect x="77" y="133" width="7" height="7" transform="rotate(0,80.5,136.5)"/><path d="M 84 133v 7h 7a 7 7, 0, 0, 0, -7 -7" transform="rotate(90,87.5,136.5)"/><rect x="98" y="133" width="7" height="7" transform="rotate(0,101.5,136.5)"/><path d="M 105 133v 7h 7a 7 7, 0, 0, 0, -7 -7" transform="rotate(90,108.5,136.5)"/><path d="M 126 133v 7h 7a 7 7, 0, 0, 0, -7 -7" transform="rotate(-90,129.5,136.5)"/><path d="M 133 133v 7h 7a 7 7, 0, 0, 0, -7 -7" transform="rotate(90,136.5,136.5)"/><path d="M 161 133v 7h 7a 7 7, 0, 0, 0, -7 -7" transform="rotate(90,164.5,136.5)"/><rect x="182" y="133" width="7" height="7" transform="rotate(0,185.5,136.5)"/><rect x="189" y="133" width="7" height="7" transform="rotate(0,192.5,136.5)"/><path d="M 210 133v 7h 7a 7 7, 0, 0, 0, -7 -7" transform="rotate(-90,213.5,136.5)"/><rect x="14" y="140" width="7" height="7" transform="rotate(0,17.5,143.5)"/><path d="M 21 140v 7h 7a 7 7, 0, 0, 0, -7 -7" transform="rotate(90,24.5,143.5)"/><path d="M 49 140v 7h 7a 7 7, 0, 0, 0, -7 -7" transform="rotate(-90,52.5,143.5)"/><path d="M 56 140v 7h 7a 7 7, 0, 0, 0, -7 -7" transform="rotate(90,59.5,143.5)"/><path d="M 70 140v 7h 7a 7 7, 0, 0, 0, -7 -7" transform="rotate(90,73.5,143.5)"/><rect x="126" y="140" width="7" height="7" transform="rotate(0,129.5,143.5)"/><path d="M 147 140v 3.5a 3.5 3.5, 0, 0, 0, 3.5 3.5h 3.5v -3.5a 3.5 3.5, 0, 0, 0, -3.5 -3.5" transform="rotate(90,150.5,143.5)"/><path d="M 175 140v 7h 7a 7 7, 0, 0, 0, -7 -7" transform="rotate(-90,178.5,143.5)"/><rect x="182" y="140" width="7" height="7" transform="rotate(0,185.5,143.5)"/><rect x="189" y="140" width="7" height="7" transform="rotate(0,192.5,143.5)"/><path d="M 196 140v 7h 7a 7 7, 0, 0, 0, -7 -7" transform="rotate(90,199.5,143.5)"/><path d="M 210 140v 7h 7a 7 7, 0, 0, 0, -7 -7" transform="rotate(90,213.5,143.5)"/><rect x="14" y="147" width="7" height="7" transform="rotate(0,17.5,150.5)"/><path d="M 49 147v 7h 7a 7 7, 0, 0, 0, -7 -7" transform="rotate(90,52.5,150.5)"/><path d="M 77 147v 7h 7a 7 7, 0, 0, 0, -7 -7" transform="rotate(-90,80.5,150.5)"/><path d="M 84 147v 7h 7a 7 7, 0, 0, 0, -7 -7" transform="rotate(90,87.5,150.5)"/><path d="M 98 147v 3.5a 3.5 3.5, 0, 0, 0, 3.5 3.5h 3.5v -3.5a 3.5 3.5, 0, 0, 0, -3.5 -3.5" transform="rotate(90,101.5,150.5)"/><path d="M 112 147v 7h 7a 7 7, 0, 0, 0, -7 -7" transform="rotate(-90,115.5,150.5)"/><rect x="119" y="147" width="7" height="7" transform="rotate(0,122.5,150.5)"/><rect x="126" y="147" width="7" height="7" transform="rotate(0,129.5,150.5)"/><path d="M 161 147v 7h 7a 7 7, 0, 0, 0, -7 -7" transform="rotate(-90,164.5,150.5)"/><rect x="168" y="147" width="7" height="7" transform="rotate(0,171.5,150.5)"/><rect x="175" y="147" width="7" height="7" transform="rotate(0,178.5,150.5)"/><path d="M 189 147v 7h 7a 7 7, 0, 0, 0, -7 -7" transform="rotate(90,192.5,150.5)"/><path d="M 203 147v 3.5a 3.5 3.5, 0, 0, 0, 3.5 3.5h 3.5v -3.5a 3.5 3.5, 0, 0, 0, -3.5 -3.5" transform="rotate(90,206.5,150.5)"/><path d="M 14 154v 7h 7a 7 7, 0, 0, 0, -7 -7" transform="rotate(90,17.5,157.5)"/><path d="M 28 154v 3.5a 3.5 3.5, 0, 0, 0, 3.5 3.5h 3.5v -3.5a 3.5 3.5, 0, 0, 0, -3.5 -3.5" transform="rotate(90,31.5,157.5)"/><path d="M 56 154v 7h 7a 7 7, 0, 0, 0, -7 -7" transform="rotate(-90,59.5,157.5)"/><rect x="63" y="154" width="7" height="7" transform="rotate(0,66.5,157.5)"/><rect x="70" y="154" width="7" height="7" transform="rotate(0,73.5,157.5)"/><path d="M 77 154v 7h 7a 7 7, 0, 0, 0, -7 -7" transform="rotate(90,80.5,157.5)"/><path d="M 105 154v 3.5a 3.5 3.5, 0, 0, 0, 3.5 3.5h 3.5v -3.5a 3.5 3.5, 0, 0, 0, -3.5 -3.5" transform="rotate(90,108.5,157.5)"/><rect x="126" y="154" width="7" height="7" transform="rotate(0,129.5,157.5)"/><rect x="133" y="154" width="7" height="7" transform="rotate(0,136.5,157.5)"/><path d="M 154 154v 7h 7a 7 7, 0, 0, 0, -7 -7" transform="rotate(-90,157.5,157.5)"/><rect x="161" y="154" width="7" height="7" transform="rotate(0,164.5,157.5)"/><rect x="168" y="154" width="7" height="7" transform="rotate(0,171.5,157.5)"/><rect x="175" y="154" width="7" height="7" transform="rotate(0,178.5,157.5)"/><rect x="182" y="154" width="7" height="7" transform="rotate(0,185.5,157.5)"/><path d="M 196 154v 7h 7a 7 7, 0, 0, 0, -7 -7" transform="rotate(-90,199.5,157.5)"/><rect x="70" y="161" width="7" height="7" transform="rotate(0,73.5,164.5)"/><path d="M 112 161v 7h 7a 7 7, 0, 0, 0, -7 -7" transform="rotate(-90,115.5,164.5)"/><rect x="119" y="161" width="7" height="7" transform="rotate(0,122.5,164.5)"/><rect x="133" y="161" width="7" height="7" transform="rotate(0,136.5,164.5)"/><rect x="140" y="161" width="7" height="7" transform="rotate(0,143.5,164.5)"/><rect x="147" y="161" width="7" height="7" transform="rotate(0,150.5,164.5)"/><rect x="154" y="161" width="7" height="7" transform="rotate(0,157.5,164.5)"/><rect x="182" y="161" width="7" height="7" transform="rotate(0,185.5,164.5)"/><rect x="189" y="161" width="7" height="7" transform="rotate(0,192.5,164.5)"/><path d="M 196 161v 7h 7a 7 7, 0, 0, 0, -7 -7" transform="rotate(90,199.5,164.5)"/><rect x="70" y="168" width="7" height="7" transform="rotate(0,73.5,171.5)"/><rect x="77" y="168" width="7" height="7" transform="rotate(0,80.5,171.5)"/><path d="M 91 168v 7h 7a 7 7, 0, 0, 0, -7 -7" transform="rotate(-90,94.5,171.5)"/><rect x="112" y="168" width="7" height="7" transform="rotate(0,115.5,171.5)"/><path d="M 119 168v 7h 7a 7 7, 0, 0, 0, -7 -7" transform="rotate(90,122.5,171.5)"/><rect x="133" y="168" width="7" height="7" transform="rotate(0,136.5,171.5)"/><rect x="147" y="168" width="7" height="7" transform="rotate(0,150.5,171.5)"/><rect x="154" y="168" width="7" height="7" transform="rotate(0,157.5,171.5)"/><path d="M 168 168v 3.5a 3.5 3.5, 0, 0, 0, 3.5 3.5h 3.5v -3.5a 3.5 3.5, 0, 0, 0, -3.5 -3.5" transform="rotate(90,171.5,171.5)"/><rect x="182" y="168" width="7" height="7" transform="rotate(0,185.5,171.5)"/><rect x="77" y="175" width="7" height="7" transform="rotate(0,80.5,178.5)"/><rect x="84" y="175" width="7" height="7" transform="rotate(0,87.5,178.5)"/><rect x="91" y="175" width="7" height="7" transform="rotate(0,94.5,178.5)"/><rect x="98" y="175" width="7" height="7" transform="rotate(0,101.5,178.5)"/><rect x="105" y="175" width="7" height="7" transform="rotate(0,108.5,178.5)"/><path d="M 126 175v 7h 7a 7 7, 0, 0, 0, -7 -7" transform="rotate(-90,129.5,178.5)"/><rect x="133" y="175" width="7" height="7" transform="rotate(0,136.5,178.5)"/><rect x="140" y="175" width="7" height="7" transform="rotate(0,143.5,178.5)"/><rect x="147" y="175" width="7" height="7" transform="rotate(0,150.5,178.5)"/><rect x="154" y="175" width="7" height="7" transform="rotate(0,157.5,178.5)"/><rect x="182" y="175" width="7" height="7" transform="rotate(0,185.5,178.5)"/><path d="M 189 175v 7h 7a 7 7, 0, 0, 0, -7 -7" transform="rotate(90,192.5,178.5)"/><path d="M 203 175v 7h 7a 7 7, 0, 0, 0, -7 -7" transform="rotate(-90,206.5,178.5)"/><path d="M 84 182v 7h 7a 7 7, 0, 0, 0, -7 -7" transform="rotate(90,87.5,185.5)"/><path d="M 105 182v 7h 7a 7 7, 0, 0, 0, -7 -7" transform="rotate(90,108.5,185.5)"/><rect x="133" y="182" width="7" height="7" transform="rotate(0,136.5,185.5)"/><rect x="147" y="182" width="7" height="7" transform="rotate(0,150.5,185.5)"/><rect x="154" y="182" width="7" height="7" transform="rotate(0,157.5,185.5)"/><rect x="161" y="182" width="7" height="7" transform="rotate(0,164.5,185.5)"/><rect x="168" y="182" width="7" height="7" transform="rotate(0,171.5,185.5)"/><rect x="175" y="182" width="7" height="7" transform="rotate(0,178.5,185.5)"/><path d="M 182 182v 7h 7a 7 7, 0, 0, 0, -7 -7" transform="rotate(90,185.5,185.5)"/><rect x="203" y="182" width="7" height="7" transform="rotate(0,206.5,185.5)"/><path d="M 77 189v 7h 7a 7 7, 0, 0, 0, -7 -7" transform="rotate(-90,80.5,192.5)"/><path d="M 112 189v 7h 7a 7 7, 0, 0, 0, -7 -7" transform="rotate(-90,115.5,192.5)"/><rect x="133" y="189" width="7" height="7" transform="rotate(0,136.5,192.5)"/><rect x="140" y="189" width="7" height="7" transform="rotate(0,143.5,192.5)"/><rect x="147" y="189" width="7" height="7" transform="rotate(0,150.5,192.5)"/><rect x="154" y="189" width="7" height="7" transform="rotate(0,157.5,192.5)"/><rect x="175" y="189" width="7" height="7" transform="rotate(0,178.5,192.5)"/><path d="M 189 189v 7h 7a 7 7, 0, 0, 0, -7 -7" transform="rotate(-90,192.5,192.5)"/><rect x="196" y="189" width="7" height="7" transform="rotate(0,199.5,192.5)"/><rect x="203" y="189" width="7" height="7" transform="rotate(0,206.5,192.5)"/><path d="M 77 196v 7h 7a 7 7, 0, 0, 0, -7 -7" transform="rotate(90,80.5,199.5)"/><path d="M 91 196v 3.5a 3.5 3.5, 0, 0, 0, 3.5 3.5h 3.5v -3.5a 3.5 3.5, 0, 0, 0, -3.5 -3.5" transform="rotate(90,94.5,199.5)"/><path d="M 105 196v 7h 7a 7 7, 0, 0, 0, -7 -7" transform="rotate(-90,108.5,199.5)"/><rect x="112" y="196" width="7" height="7" transform="rotate(0,115.5,199.5)"/><rect x="119" y="196" width="7" height="7" transform="rotate(0,122.5,199.5)"/><rect x="126" y="196" width="7" height="7" transform="rotate(0,129.5,199.5)"/><rect x="140" y="196" width="7" height="7" transform="rotate(0,143.5,199.5)"/><rect x="147" y="196" width="7" height="7" transform="rotate(0,150.5,199.5)"/><rect x="154" y="196" width="7" height="7" transform="rotate(0,157.5,199.5)"/><rect x="161" y="196" width="7" height="7" transform="rotate(0,164.5,199.5)"/><rect x="168" y="196" width="7" height="7" transform="rotate(0,171.5,199.5)"/><rect x="175" y="196" width="7" height="7" transform="rotate(0,178.5,199.5)"/><rect x="182" y="196" width="7" height="7" transform="rotate(0,185.5,199.5)"/><rect x="189" y="196" width="7" height="7" transform="rotate(0,192.5,199.5)"/><path d="M 203 196v 7h 7a 7 7, 0, 0, 0, -7 -7" transform="rotate(90,206.5,199.5)"/><path d="M 70 203v 3.5a 3.5 3.5, 0, 0, 0, 3.5 3.5h 3.5v -3.5a 3.5 3.5, 0, 0, 0, -3.5 -3.5" transform="rotate(90,73.5,206.5)"/><path d="M 84 203v 3.5a 3.5 3.5, 0, 0, 0, 3.5 3.5h 3.5v -3.5a 3.5 3.5, 0, 0, 0, -3.5 -3.5" transform="rotate(90,87.5,206.5)"/><path d="M 126 203v 7h 7a 7 7, 0, 0, 0, -7 -7" transform="rotate(90,129.5,206.5)"/><rect x="154" y="203" width="7" height="7" transform="rotate(0,157.5,206.5)"/><rect x="161" y="203" width="7" height="7" transform="rotate(0,164.5,206.5)"/><rect x="182" y="203" width="7" height="7" transform="rotate(0,185.5,206.5)"/><rect x="189" y="203" width="7" height="7" transform="rotate(0,192.5,206.5)"/><rect x="196" y="203" width="7" height="7" transform="rotate(0,199.5,206.5)"/><path d="M 210 203v 3.5a 3.5 3.5, 0, 0, 0, 3.5 3.5h 3.5v -3.5a 3.5 3.5, 0, 0, 0, -3.5 -3.5" transform="rotate(90,213.5,206.5)"/><path d="M 105 210v 7h 7a 7 7, 0, 0, 0, -7 -7" transform="rotate(-90,108.5,213.5)"/><rect x="112" y="210" width="7" height="7" transform="rotate(0,115.5,213.5)"/><path d="M 119 210v 7h 7a 7 7, 0, 0, 0, -7 -7" transform="rotate(90,122.5,213.5)"/><path d="M 133 210v 3.5a 3.5 3.5, 0, 0, 0, 3.5 3.5h 3.5v -3.5a 3.5 3.5, 0, 0, 0, -3.5 -3.5" transform="rotate(90,136.5,213.5)"/><path d="M 147 210v 7h 7a 7 7, 0, 0, 0, -7 -7" transform="rotate(-90,150.5,213.5)"/><rect x="154" y="210" width="7" height="7" transform="rotate(0,157.5,213.5)"/><rect x="161" y="210" width="7" height="7" transform="rotate(0,164.5,213.5)"/><path d="M 168 210v 7h 7a 7 7, 0, 0, 0, -7 -7" transform="rotate(90,171.5,213.5)"/><path d="M 182 210v 7h 7a 7 7, 0, 0, 0, -7 -7" transform="rotate(90,185.5,213.5)"/><path d="M 196 210v 7h 7a 7 7, 0, 0, 0, -7 -7" transform="rotate(90,199.5,213.5)"/></g></svg>