<svg version="1" xmlns="http://www.w3.org/2000/svg" width="400" height="200" viewBox="0 0 300 300">
    <g fill="#567660">
        <path class="node"
            d="M147.5 61l-5 3.7-3-2.3c-1.7-1.2-4.2-2.7-5.7-3.3-2.6-1-2.7-.9-2.3 1.7.2 1.5.6 4.6.9 6.8l.6 4.2-5.5.4c-6 .5-7.8 1.4-5.5 2.8.8.4 3.2 2.3 5.2 4.1l3.6 3.2-3.1 1.6c-1.7.9-4.2 3.1-5.4 5-1.9 2.8-2.3 3-2.3 1.3 0-2.7-1.5-3.6-3-1.7-.6.8-3.3 1.7-5.8 2.1-4.9.7-8.2 2.7-8.2 5.1 0 .7-.5 1.3-1.1 1.3-.8 0-.9-1.5-.4-4.8.6-4.5.6-4.6-1.1-3-1.3 1.2-1.9 3.9-2.2 9.7-.2 4.5-.6 8.1-.8 8.1-.3 0-1.3-.5-2.3-1.2-1.5-.9-2.6-.7-5.5 1-2.1 1.2-4.6 2.2-5.7 2.2-2.7 0-2.4 1.3 1.2 3.9 6 4.5 13.9 3.8 13.9-1.2 0-1.8.5-1.6 3.9 1.8l4 3.8-3.6 1.9c-7.6 4.1-12.3 10.9-12.2 17.8 0 9.4 6.2 16 15 16 6.3 0 11.1-2.5 14.4-7.5 2.2-3.3 2.5-4.7 2.1-8.4l-.6-4.4 4.1.6c5 .7 9.9 4.9 9.9 8.7 0 4.3-2.6 6.6-10.5 9.5-13.4 4.9-15.8 11-8.4 21.6l4.2 5.9-2.8 6.2c-1.5 3.5-3.6 8.3-4.7 10.8s-2.5 5.8-3.2 7.5c-11.8 27.1-15.5 33.3-19.3 32.1-2.7-.9-8-6.2-8.6-8.7-.6-2.2.8-2.6 1.7-.4.9 2.4 7.1 1.9 9.6-.8 2.5-2.6 4.7-7.3 5.6-12.4l.7-3.7-2.8 2.2c-1.8 1.4-4.2 2.2-6.6 2.2-4.9 0-7.9 2.8-8 7.2 0 3.1-.1 3.2-1 .9-.5-1.3-.7-3.2-.4-4.2.4-1.1.3-2.8 0-4-1.3-3.9-3.5 2.6-3.5 10.2v6.9l-2.5-1.2c-1.8-.8-3.2-.8-5.5.2-1.6.7-3 1.6-3 2.1s-1.2.9-2.7.9h-2.6l2.2 2.4c2.5 2.7 9.3 5 12.2 4.1 1.1-.4 2.4-1.8 3-3.2l.9-2.4 2.5 2.9c3 3.6 3.1 4.2.4 4.2-1.5 0-2 .5-1.7 2.2l.3 2.3h23c22.2 0 23-.1 23-2 0-1.5-.9-2.1-4.3-2.7-5.9-1-9.4-2.9-11.1-5.9-1.4-2.4-1.2-3.4 1.4-11.3 1.6-4.8 3.3-8.9 3.7-9.2.4-.3.8 1.8.8 4.6 0 13.1 11.5 23.8 26.5 24.8 9.1.5 16.4-2.1 22.4-8 6.3-6.3 7.5-9.1 7.5-17.8 0-7.8-1.1-11.2-6-17.7-1.3-1.7-2.4-3.4-2.4-3.6 0-.8 14.2.1 15 1 1.6 1.7 11.9 28 12.6 31.9.3 2.4.2 5-.5 6.1-1.3 2.6-7 5.3-11.1 5.3-2.7 0-3.1.3-2.8 2.2l.3 2.3h58l.1-2.6c0-1.4 1.3-4.2 2.9-6.3 4.1-5.3 4.7-13.6 1.3-18.5-1.2-1.9-3.7-4.1-5.5-5-2.9-1.5-3.1-2-3.1-6.7.1-5.4-.9-7.4-7.2-15.4-5-6.4-6.2-8.8-7.6-15.4-1.1-5.2-1-6.4.6-10.1 1.9-4.3 3.4-5.5 7.5-5.5 4.2 0 7.2 6.9 4.8 11.3-1.8 3.6-4.9 3.5-6.8-.3-1.9-3.7-3.5-3.1-3.5 1.3 0 4.9 2.4 7.7 6.6 7.7 4.7 0 6.9-1.3 8.8-5.1 3.5-6.9.2-17.9-6.1-20.8-7.5-3.4-16.3 1.8-18.6 11.1-.8 3.2-1.5 3.4-4.2 1.4-1.9-1.4-1.9-1.5.9-4.3 1.6-1.5 3.5-4.2 4.2-6 1.9-4.4 1.7-12-.4-16.3-2-4.1-7.5-8-11.2-8-10 0-16.4 12.8-10.8 21.7 2.6 4.3 7.9 6.8 10.9 5.2 3.3-1.7 3.3-.3.1 2-5.5 3.9-10.6 2.1-14.2-4.9-3-5.9-2.5-9.9 2.6-21 2.5-5.5 4.6-11.3 4.6-12.8.1-4.6-2.9-9.7-7.2-12.1l-4-2.2 3-3.1c1.7-1.7 3.2-2.9 3.3-2.7.1.2.7 1.3 1.2 2.3 2.3 4.1 8.4 3.7 14-.8 2.8-2.3 2.9-2.5 1-3.1-1.1-.3-3.3-1.3-4.8-2.1-3.3-1.6-7.3-1.8-8.2-.4-1.5 2.4-2 .5-2-6.8-.1-5.9-.5-8.4-1.9-10.2l-1.8-2.5.7 4.7c.7 5.2-.8 6.7-2.4 2.4-1.1-2.7-2.1-3.2-8.5-4.1-2.5-.4-4.9-1.1-5.2-1.6-.9-1.6-2.4-1-2.4 1 0 2.8 3.6 10.7 5.9 13 2.4 2.4 7.9 2.8 10 .8.9-.7.7 0-.3 2-2 4-4.5 5.7-12.1 8.3-3.2 1.1-5.9 2-6 2-.1 0-1-1.9-1.9-4.3-2.9-6.8-3.2-7.2-5.7-7.2-1.9 0-2.6.7-3.3 3.8-.8 3.1-.6 4.7 1.3 9 1.3 2.9 3.1 7.2 4 9.7 1 2.5 2.5 6.1 3.4 8 .8 1.9 4.6 10.9 8.3 20 6.5 16.1 24 58.5 29 70.5 1.4 3.3 2.9 6.8 3.5 7.7 1.3 2.6 1.1 3-1.3 2.6-2.5-.4-3-1.5-20.3-43.8-10.1-24.6-12.4-30.2-13.6-32.2-.5-1-.9-2.2-.9-2.7s-1.3-3.8-2.8-7.3c-1.6-3.5-5-11.5-7.6-17.8-2.6-6.3-5-12.1-5.4-12.7-.5-.7-5.1-1.6-10.9-2.2-11.3-1-15.5-2.8-17.4-7.2-2.6-6.3 3.3-14.7 9.5-13.5 5.5 1.1 9.5 8.3 6.4 11.4-1.7 1.7-5.7 1.5-6.4-.3-.8-2.1-2.4-1.9-2.4.3 0 2.6 2 4.2 5.3 4.2 4.4 0 6.5-1.7 7.7-5.9 1.4-5.4 4.2-8.5 9-10.1 3.7-1.2 4.5-1.2 8.5.8 2.5 1.2 4.5 1.9 4.5 1.6 0-3.1-7.6-8.4-12-8.4-1.2 0-3.5.7-5.2 1.6l-3.1 1.6.7-2.9c1-3.6 1.4-3.9 2.8-2.5 2.2 2.2 6.3 1.3 10.1-2.2 3.3-3 5.3-6.7 2.8-5.1-.5.3-3 0-5.5-.7l-4.5-1.2-.3-6.2-.3-6.1-5 3.7zM144 71c0 .5-.4 1-1 1-.5 0-1-.5-1-1 0-.6.5-1 1-1 .6 0 1 .4 1 1zm-5 6.6c0 4.7-.3 5.5-1.6 5-.9-.3-2.1-.6-2.7-.6-.7 0-.4-.7.7-1.5 1.4-1.1 1.7-2.2 1.3-5-.4-2.6-.2-3.5.9-3.5 1 0 1.4 1.4 1.4 5.6zm10-4.1c0 .8-.4 1.5-.9 1.5s-1.4-.7-2.1-1.5c-1-1.3-.9-1.5.9-1.5 1.2 0 2.1.6 2.1 1.5zm-4 12c0 .8-.4 1.5-1 1.5-.5 0-1-.7-1-1.5s.5-1.5 1-1.5c.6 0 1 .7 1 1.5zm-25.1 10.7c-.4 4.6.2 6.7 2.6 9.7 3.7 4.3 7.2 5.9 16.5 7.5 9.4 1.6 9.6 2.2 4.5 13.1-3.4 7.3-4.7 8.7-6.1 6.4-.3-.6-2.6-2-4.9-3-3.6-1.6-5.9-1.8-13.6-1.4-9.9.5-11.3 1.2-12.5 5.9-.5 2.2-.4 2.7.6 2.1.9-.6 1-.3 0 1.5-1.7 3.2-.9 3.2 3.9-.1 5-3.3 5.9-3.5 6.7-1.4 1.1 2.8-.6 6.5-3.9 8.5-4.5 2.8-8.1 2.5-11.9-.9-2.9-2.6-3.3-3.5-3.3-8.3 0-10.6 7.5-16 22.2-16 7.7 0 8.5-.2 6.8-1.4-1.8-1.4-3.5-1.7-12.6-2.9-4.9-.6-7.9-3.1-11.5-9.2-2-3.6-1.4-5.4 1.1-2.9 3.6 3.6 10.3.5 12.6-5.9 1.5-3.9 3.1-4.7 2.8-1.3zm62.2 16c4.3 2.3 7.1 6.8 6.2 9.7-1 3.1-6.7 16.6-7.3 17.4-.6.7-13-26.8-13-28.7 0-1.6 10.2-.4 14.1 1.6zm-22 34.2c3.3 7.6 5.6 14.2 5.3 14.7-.3.5-1.6.6-2.9.3-3.2-.8-6.4 1.2-8 4.8-1.1 2.8-1 3.3.8 5.4 3 3.5 5.9 3 10.1-1.6 2-2.2 3.6-3.5 3.6-2.9 0 .5 1.1 3.4 2.4 6.2 1.4 2.9 2.8 6.4 3.1 8 .4 1.5 1.1 3 1.6 3.3.5.3.9 1.2.9 2 0 1.1-1.5 1.4-6.7 1.4-6.2-.1-6.6-.2-4.9-1.5 1.1-.8 1.8-1.6 1.5-1.7-5.2-3.2-10.1-5-11.1-4-2.1 2.1-2.5 1.3-3-6.4-.6-8.9-2.8-12.6-2.9-4.9 0 4.4-.2 4.7-1 2.4-1.1-2.8-4.6-4.9-8.4-4.9-1.4 0-2.5-.4-2.5-1 0-.8 4.5-11.7 9.1-21.8 1.1-2.4 2.7-6.1 3.6-8.3.8-2.2 2-3.8 2.6-3.6.5.1 3.6 6.5 6.8 14.1zM111.5 134c-.3.5-1.1 1-1.6 1-.6 0-.7-.5-.4-1 .3-.6 1.1-1 1.6-1 .6 0 .7.4.4 1zm92.8 7c3 2.4 4.5 8.1 2.9 11.3l-1.1 2.2v-2.3c-.1-2.6-2.8-7.2-4.3-7.2-.6 0-.7.7-.4 1.5.3.8.9 2.1 1.2 2.9.3.7-.2 2.1-1.1 3-1.3 1.2-2.1 1.4-3.6.5-4.4-2.3-4.8-10.7-.6-12.7 3.2-1.5 4.1-1.4 7 .8zM129 159.4c0 1.9-3.9 10.6-4.8 10.6-1.3 0-4.3-6-3.6-7.1.7-1.2 6.5-4.9 7.7-4.9.4 0 .7.6.7 1.4zm74.5 12.5c5.2 2.3 6.4 3.5 9.6 9.5 3.5 6.5.8 14.6-4.7 14.6-3.1 0-5.8-4.2-5-7.6.5-1.9 1.2-2.5 2.9-2.2 1.7.2 2.3 1.1 2.7 3.7.5 3.1.6 3.3 1.9 1.7 1.9-2.2.4-8.4-2.5-10.2-1.7-1.2-2.5-1.1-5.9.6-2.1 1.1-3.9 1.9-4 1.7-1.2-1.9-5.5-13.2-5.5-14.2 0-1.6 3-.9 10.5 2.4zm-63.2 7c1.1.9 3 1.2 5.3.8 3.5-.6 3.5-.6 2.1 1.6-2.2 3.3-9.4 6.7-14.4 6.7-2.3 0-4.3-.4-4.3-.9s.9-3.1 2.1-5.8c1.1-2.6 2.5-5.9 3-7.2l1-2.5 1.8 3c1 1.6 2.5 3.5 3.4 4.3zM152 187c0 .5-.4 1-1 1-.5 0-1-.5-1-1 0-.6.5-1 1-1 .6 0 1 .4 1 1zm72.8 10.3c4 4.1 5.1 8.7 2.6 11.1-1.8 1.9-6.2 1.5-7.6-.7-1-1.5-1-1.9.1-3.6.8-1.2 1.4-1.3 3.5-.3 2.3 1 2.6.9 2.6-.6 0-1-.5-2.3-1.2-3-1.5-1.5-6.4-1.6-7.3-.2-.3.5-1.1 1-1.6 1s.3-1.6 1.8-3.5 3-3.5 3.4-3.5c.3 0 1.9 1.5 3.7 3.3zm-89.4-.4c.3.4-1.1 1.3-3.2 1.9-2 .7-5.1 2.5-6.9 4.2-3.6 3.4-4.3 3.6-4.3 1.5 0-.8 1.6-3 3.5-5 2.7-2.6 4.4-3.5 7-3.5 1.8 0 3.6.4 3.9.9zm21.7 1.4c5.1 3.4 9.6 10 10.9 16 1.1 4.8 1 5.8-1 10.4-3.8 9-10.5 13.3-20.6 13.3-7.6 0-12.5-2.1-17.2-7.4-10.4-11.9-3-27.6 12.9-27.6 11.9 0 20.3 13.7 13.3 21.9-4.8 5.8-15.4 5.1-19.3-1.3-2.6-4.2-2.6-5.7 0-9 2.5-3.2 7-3.5 9.9-.6 3.2 3.2 1.9 7.8-1.5 5-2.2-1.9-6.1-.9-5.7 1.5.6 3.3 2.8 4.8 7.2 4.8 4.6 0 7.5-2.1 8.5-6.3 1-4.1-3.9-10.6-8.9-11.9-12.5-3.4-22.3 8.7-15.3 19 8.2 12.1 26.4 11.3 32.6-1.4 1.8-3.8 2-5.1 1.1-9.6-.5-2.8-1.4-5.9-1.9-6.9-1.6-3-6.4-6.9-10.8-8.8-2.4-1-4.3-2.1-4.3-2.6 0-1.7 6.9-.7 10.1 1.5zm55.9 4.6c0 1.3-2.7 2.1-4.5 1.5-.8-.4-1.2-1-.9-1.5.7-1.2 5.4-1.2 5.4 0zm4.1 9.2c2.8 3 2.9 3.3 1.4 5.5-.8 1.3-1.5 3-1.5 3.9 0 4.4-4.8-2.9-6.6-10.2-.9-3.5 3.1-3 6.7.8zm16.4 6.5c3.7 1.5 5.6 9.3 3.4 13.7-3.3 6.3-7.4 8.1-11.7 5.1-3-2.1-2.8-3 .8-3.8 1.9-.3 3.4-1.5 4.2-3.1 1.3-2.9.1-4.9-1.3-2.2-1.6 2.7-6.3 2.2-7.7-.8-1.4-3.1.6-8 3.5-8.8 2.8-.7 7-.8 8.8-.1zM208 74c-.8.5-4 1-7.1 1-4 0-6.1.5-7 1.7-1.9 2.2-1.8 10.1.1 11.3 2.6 1.6 6.6 1.1 9.2-1.3 4.8-4.2 9-15.4 4.8-12.7zM78 83.1c0 .8 1.4 3.8 3 6.7 5.3 9.1 13.8 10.8 15.5 3.1 1.2-5.3-1.9-8.3-9.1-9-3.2-.3-6.7-.9-7.6-1.3-1.2-.6-1.8-.4-1.8.5z" />
        <path class="node"
            d="M86 152.5c0 1.3-.7 4.3-1.6 6.5-.9 2.2-1.4 4.7-1 5.5.3.8.4 1.5.3 1.5-.1 0-2-.7-4.2-1.5-4-1.4-11.5-2-11.5-.9 0 .3.9 1.7 2 3.1 1.1 1.4 2 3.4 2 4.4 0 2.8 3.6 5.9 6.8 5.9 3.9 0 6.6-3.1 6-7-.5-3.5-.4-3.6 2.7-1.2l2.2 1.8-2.3 2.8c-2.6 2.9-3.1 7.4-1.3 10.8.9 1.7 1.3 1.8 2 .7.6-1 .9-1.1.9-.2 0 .7.9 1.3 2.1 1.3 1.5 0 1.9.4 1.5 1.6-.3.9-.6 1.7-.6 2 0 .2-1.2-.1-2.6-.6-3.7-1.4-4.7-1.3-7.3 1.2-2.1 1.9-2.3 2.7-1.7 7.6.4 2.9 1.3 6.6 2 8l1.4 2.6 1.5-3c.8-1.6 2.9-4.2 4.6-5.8 1.7-1.7 3.1-3.7 3.1-4.5 0-1 .3-1.2.8-.6 1.1 1.6 5.5 3.3 10.6 4 3.9.6 4.6.5 4.6-.9 0-.9-.4-1.6-.9-1.6-.8 0-4.1-8.1-4.1-9.9 0-.3 1.5-.7 3.3-.8 3.3-.2 10.7-3.3 10.7-4.5 0-.3-1.2-1.1-2.7-1.7-1.6-.5-4.3-2.4-6.2-4-3.2-2.8-3.3-3.2-1.9-4.8 1.7-1.9 5.2-11.2 4.5-11.9-.2-.2-2 .3-4 1.1s-4.7 1.5-6.1 1.5c-1.4 0-2.8.4-3.1 1-1.1 1.7-2.2 1.1-3.4-1.8-1.2-2.8-7.3-10.2-8.4-10.2-.4 0-.7 1.1-.7 2.5zm12.4 20.3c2.1 1.6 2.2 2 .9 3.8-.9 1.2-1.2 3.1-.8 5.1.5 3.1.4 3.3-2.1 3.3-2 0-2.4-.3-1.7-1.3 2.9-3.6 2-12.7-1.2-12.7-2 0-1.9-1 .3-2.6 1.4-1.1 1.7-1 2 .6.2 1.1 1.4 2.8 2.6 3.8zM59 208.5c3 8 7.2 12.5 11.4 12.5 4.3 0 5.6-1.1 6.3-5.3.8-5-3-8.9-8.4-8.6-2.1.1-5.3-.1-7.1-.5-3.2-.7-3.2-.7-2.2 1.9z" />
    </g>
</svg>